<svg width="859" height="1193" viewBox="0 0 859 1193" fill="none" xmlns="http://www.w3.org/2000/svg">
<g filter="url(#filter0_d)">
<path d="M132.234 92.9955C131.43 93.2144 130.788 93.8194 130.522 94.6089C130.165 95.6654 129.779 96.7933 129.371 97.9815C127.497 103.449 125.184 110.195 123.386 117.133C121.207 125.543 119.689 134.562 120.725 142.242C122.662 156.604 127.918 176.751 130.391 185.358V693.88C118.397 702.777 100.178 717.23 83.1644 732.675C65.7539 748.482 49.287 765.607 42.2749 778.976C40.3882 782.573 38.978 787.896 37.8972 794.36C36.8068 800.882 36.0184 808.784 35.4769 817.68C34.3936 835.477 34.2889 857.417 34.7841 880.571C35.7745 926.889 39.1693 978.242 41.9979 1011.4C42.0796 1012.36 42.703 1013.18 43.6016 1013.52C93.9951 1032.65 204.767 1073.42 243.701 1083.05C261.163 1087.36 294.898 1097.14 331.775 1107.84C345.919 1111.94 360.525 1116.17 374.852 1120.28C400.663 1127.69 425.552 1134.7 445.132 1139.77C454.919 1142.31 463.406 1144.38 470.03 1145.77C473.34 1146.47 476.212 1147 478.562 1147.34C480.863 1147.68 482.825 1147.85 484.24 1147.76C485.643 1147.67 488.114 1147.14 491.291 1146.33C494.55 1145.5 498.771 1144.33 503.803 1142.85C513.87 1139.9 527.248 1135.72 542.804 1130.68C573.919 1120.59 613.794 1107 653.403 1092.7C693.005 1078.4 732.378 1063.38 762.474 1050.42C777.515 1043.95 790.292 1037.97 799.636 1032.84C804.304 1030.27 808.175 1027.89 811.062 1025.73C812.507 1024.65 813.747 1023.59 814.73 1022.57C815.694 1021.56 816.521 1020.47 816.992 1019.31C817.588 1017.83 818.059 1015.73 818.456 1013.22C818.861 1010.67 819.214 1007.53 819.523 1003.88C820.141 996.581 820.589 987.142 820.897 976.108C821.514 954.033 821.574 925.453 821.292 894.591C820.726 832.88 818.789 761.952 817.174 715.449V200.742C819.2 186.216 820.404 163.743 820.505 144.187C820.555 134.363 820.328 125.216 819.778 118.138C819.504 114.605 819.145 111.533 818.687 109.128C818.458 107.926 818.195 106.841 817.886 105.925C817.595 105.059 817.193 104.128 816.586 103.407C816.217 102.97 815.764 102.674 815.459 102.494C815.112 102.289 814.717 102.097 814.305 101.917C813.477 101.555 812.411 101.167 811.151 100.756C808.622 99.9318 805.125 98.9541 800.79 97.8495C792.109 95.6376 779.924 92.8804 765.089 89.7807C735.413 83.5797 695.05 75.9897 650.741 68.6257C562.179 53.9067 457.63 40.0523 391.151 40.0522C368.542 40.0522 320.548 48.7497 270.057 59.6527C219.448 70.5811 165.984 83.8054 132.234 92.9955Z" stroke="#0DFFF0" stroke-opacity="0.01" stroke-width="5" stroke-linejoin="round"/>
</g>
<g filter="url(#filter1_d)">
<path d="M130.833 184.034L376.242 108.661V617.838C130.833 691.111 376.242 617.838 130.833 691.111V184.034Z" fill="url(#paint0_linear)" fill-opacity="0.7"/>
<path d="M374.243 111.263L810.605 191.507V712.627L374.243 617.944V111.263Z" fill="url(#paint1_linear)" fill-opacity="0.7"/>
<g filter="url(#filter2_df)">
<g filter="url(#filter3_f)">
<path d="M535.882 637.209C528.013 621.489 510.856 612.313 502.679 605.325C496.478 600.026 482.822 594.838 471.141 594.839C464.036 594.839 451.284 598.334 443.107 601.829C436.566 604.624 422.082 616.972 418.578 621.632C415.073 626.291 408.336 636.453 404.043 644.26C390.826 668.295 371.334 696.469 393.557 716.615C421.336 741.798 515.461 729.551 539.704 713.434C577.464 688.332 542.283 649.995 535.882 637.209Z" fill="url(#paint2_linear)"/>
</g>
<path d="M448.23 633.514C445.121 632.565 443.213 629.803 443.968 627.346C444.723 624.889 446.405 623.225 450.963 624.617C454.071 625.566 456.374 627.04 455.224 630.785C454.074 634.529 451.338 634.464 448.23 633.514Z" fill="#4E3F2E"/>
<path d="M500.71 627.722C505.164 627.659 508.756 626.345 508.734 624.786C508.712 623.228 507.16 621.987 500.63 622.079C496.177 622.142 492.573 622.639 492.606 625.014C492.64 627.389 496.257 627.784 500.71 627.722Z" fill="#4E3F2E"/>
<ellipse rx="4.78033" ry="2.28061" transform="matrix(0.970302 -0.241898 0.243175 0.969982 473.884 628.995)" fill="#4E3F2E"/>
<path d="M471.506 637.742C471.432 637.626 471.277 637.591 471.161 637.665C471.044 637.739 471.01 637.894 471.084 638.01L471.506 637.742ZM475.798 635.35L476.031 635.259C475.987 635.148 475.871 635.083 475.754 635.104C475.637 635.125 475.551 635.226 475.548 635.345L475.798 635.35ZM481.426 634.341C481.364 634.218 481.213 634.168 481.09 634.23C480.967 634.292 480.917 634.442 480.979 634.565L481.426 634.341ZM471.084 638.01C471.575 638.782 472.464 639.334 473.318 639.494C473.747 639.574 474.184 639.559 474.566 639.407C474.954 639.253 475.272 638.961 475.454 638.519L474.992 638.329C474.863 638.642 474.647 638.837 474.381 638.943C474.109 639.051 473.772 639.07 473.41 639.002C472.68 638.865 471.916 638.387 471.506 637.742L471.084 638.01ZM475.454 638.519C475.771 637.748 475.917 637.178 475.984 636.683C476.051 636.194 476.039 635.78 476.048 635.356L475.548 635.345C475.539 635.797 475.55 636.164 475.489 636.615C475.428 637.061 475.296 637.59 474.992 638.329L475.454 638.519ZM475.566 635.442C475.742 635.889 476.086 636.239 476.561 636.542C477.034 636.843 477.656 637.109 478.416 637.382L478.585 636.911C477.834 636.642 477.255 636.391 476.83 636.12C476.407 635.851 476.155 635.574 476.031 635.259L475.566 635.442ZM478.416 637.382C479.268 637.688 480.261 637.433 480.919 636.866C481.251 636.58 481.508 636.205 481.615 635.768C481.723 635.327 481.676 634.84 481.426 634.341L480.979 634.565C481.179 634.965 481.207 635.331 481.13 635.648C481.051 635.969 480.859 636.257 480.592 636.487C480.051 636.954 479.243 637.148 478.585 636.911L478.416 637.382Z" fill="#4E3F2E"/>
</g>
<g filter="url(#filter4_df)">
<g filter="url(#filter5_f)">
<path d="M342.237 719.041C333.931 703.321 315.822 694.145 307.192 687.157C300.647 681.857 286.233 676.67 273.904 676.67C266.405 676.671 252.945 680.166 244.315 683.661C237.411 686.456 222.123 698.804 218.424 703.463C214.726 708.123 207.615 718.285 203.084 726.092C189.133 750.127 168.56 778.301 192.016 798.447C221.336 823.63 320.683 811.383 346.271 795.266C386.126 770.163 348.993 731.827 342.237 719.041Z" fill="url(#paint3_linear)"/>
</g>
<path d="M248.258 715.04C245.705 714.301 244.289 711.687 245.095 709.2C245.901 706.713 247.434 704.952 251.177 706.035C253.73 706.774 255.569 708.086 254.34 711.876C253.111 715.665 250.811 715.779 248.258 715.04Z" fill="#4E3F2E"/>
<path d="M306.599 711.916C309.256 711.881 311.381 709.903 311.345 707.5C311.309 705.096 310.365 703.16 306.469 703.212C303.811 703.248 301.668 703.966 301.722 707.629C301.777 711.291 303.942 711.952 306.599 711.916Z" fill="#4E3F2E"/>
<ellipse rx="5.03039" ry="2.2883" transform="matrix(0.97322 -0.229875 0.255802 0.966729 276.799 710.827)" fill="#4E3F2E"/>
<path d="M274.273 719.57C274.196 719.455 274.041 719.423 273.926 719.5C273.812 719.576 273.781 719.731 273.859 719.846L274.273 719.57ZM278.819 717.182L279.05 717.087C279.005 716.978 278.889 716.915 278.773 716.936C278.657 716.958 278.572 717.057 278.569 717.175L278.819 717.182ZM284.744 716.169C284.679 716.047 284.528 716 284.406 716.064C284.284 716.128 284.237 716.279 284.302 716.401L284.744 716.169ZM273.859 719.846C274.377 720.619 275.314 721.167 276.207 721.326C277.098 721.485 278.048 721.264 278.442 720.357L277.982 720.155C277.72 720.759 277.073 720.973 276.292 720.834C275.515 720.696 274.706 720.214 274.273 719.57L273.859 719.846ZM278.442 720.357C278.777 719.585 278.931 719.014 279.002 718.518C279.072 718.028 279.06 717.613 279.069 717.189L278.569 717.175C278.559 717.627 278.572 717.994 278.507 718.444C278.443 718.888 278.303 719.416 277.982 720.155L278.442 720.357ZM278.589 717.277C278.775 717.726 279.138 718.075 279.638 718.376C280.136 718.677 280.791 718.943 281.592 719.215L281.75 718.742C280.957 718.472 280.345 718.221 279.895 717.949C279.446 717.678 279.181 717.401 279.05 717.087L278.589 717.277ZM281.592 719.215C282.481 719.517 283.52 719.266 284.21 718.703C284.559 718.418 284.831 718.044 284.945 717.604C285.06 717.16 285.009 716.67 284.744 716.169L284.302 716.401C284.513 716.799 284.542 717.162 284.461 717.476C284.378 717.794 284.176 718.083 283.893 718.315C283.318 718.784 282.456 718.982 281.75 718.742L281.592 719.215Z" fill="#4E3F2E"/>
</g>
<g filter="url(#filter6_df)">
<g filter="url(#filter7_f)">
<path d="M760.876 738.295C752.57 722.576 734.461 713.399 725.831 706.411C719.286 701.112 704.872 695.924 692.543 695.925C685.044 695.925 671.584 699.421 662.954 702.915C656.05 705.711 640.762 718.059 637.063 722.718C633.364 727.377 626.254 737.54 621.723 745.346C607.771 769.382 587.199 797.555 610.655 817.702C639.975 842.885 739.322 830.638 764.91 814.521C804.765 789.418 767.632 751.081 760.876 738.295Z" fill="url(#paint4_linear)"/>
</g>
<path d="M668.36 734.601C665.08 733.651 663.066 730.89 663.862 728.433C664.659 725.976 666.435 724.311 671.245 725.703C674.526 726.653 676.957 728.127 675.743 731.871C674.529 735.615 671.641 735.55 668.36 734.601Z" fill="#4E3F2E"/>
<path d="M723.753 728.808C728.454 728.745 732.246 727.431 732.222 725.873C732.199 724.315 730.561 723.073 723.669 723.165C718.968 723.228 715.164 723.726 715.199 726.1C715.235 728.475 719.052 728.871 723.753 728.808Z" fill="#4E3F2E"/>
<ellipse rx="5.03038" ry="2.28828" transform="matrix(0.973221 -0.229874 0.255804 0.966729 695.438 730.081)" fill="#4E3F2E"/>
<path d="M692.912 738.824C692.835 738.709 692.68 738.678 692.565 738.754C692.45 738.831 692.42 738.986 692.497 739.101L692.912 738.824ZM697.458 736.437L697.689 736.342C697.643 736.233 697.528 736.17 697.412 736.191C697.296 736.212 697.211 736.312 697.208 736.43L697.458 736.437ZM703.383 735.424C703.318 735.302 703.166 735.254 703.044 735.318C702.922 735.382 702.876 735.533 702.941 735.656L703.383 735.424ZM692.497 739.101C693.016 739.874 693.952 740.422 694.846 740.581C695.737 740.739 696.686 740.518 697.08 739.611L696.621 739.41C696.359 740.014 695.711 740.227 694.931 740.088C694.153 739.95 693.345 739.469 692.912 738.824L692.497 739.101ZM697.08 739.611C697.415 738.839 697.569 738.269 697.641 737.773C697.711 737.283 697.699 736.868 697.708 736.444L697.208 736.43C697.198 736.882 697.21 737.248 697.146 737.699C697.082 738.143 696.942 738.671 696.621 739.41L697.08 739.611ZM697.227 736.532C697.414 736.98 697.777 737.329 698.277 737.631C698.775 737.932 699.429 738.197 700.231 738.47L700.389 737.996C699.596 737.727 698.983 737.475 698.533 737.204C698.085 736.933 697.819 736.655 697.689 736.342L697.227 736.532ZM700.231 738.47C701.119 738.772 702.159 738.521 702.849 737.957C703.198 737.672 703.469 737.298 703.583 736.859C703.698 736.415 703.647 735.924 703.383 735.424L702.941 735.656C703.151 736.053 703.181 736.416 703.099 736.731C703.017 737.049 702.815 737.338 702.531 737.569C701.957 738.038 701.095 738.236 700.389 737.996L700.231 738.47Z" fill="#4E3F2E"/>
</g>
<g filter="url(#filter8_df)">
<g filter="url(#filter9_f)">
<path d="M324.138 666.69C318.519 671.772 316.506 675.075 306.993 675.76C301.005 678.046 291.534 677.044 275.166 664.832C255.111 649.869 252.951 638.298 256.599 615.154C259.517 596.638 281.576 572.302 285.28 574.062C290.348 576.47 285.135 584.026 287.323 593.212C290.065 604.724 313.36 618.361 321.526 630.177C329.693 641.992 333.291 658.411 324.138 666.69Z" fill="#D26908"/>
</g>
<path d="M285.363 574.03C290.433 576.436 285.547 584.202 287.734 593.381C288.939 598.44 294.121 603.909 300.244 609.454C296.215 612.458 286.399 618.508 279.372 618.669C272.345 618.831 261.048 616.579 256.517 615.391C259.44 596.89 280.293 571.624 285.363 574.03Z" fill="white"/>
<g filter="url(#filter10_f)">
<path d="M359.349 672.867C358.999 661.622 352.881 646.187 351.154 639.944L331.755 631.611C325.523 633.694 306.136 642.169 298.29 654.48C294.189 660.913 291.109 664.739 291.544 670.064L287.267 668.927C287.267 668.927 288.647 665.739 285.746 662.393C282.846 659.047 277.345 673.488 279.399 674.789C281.453 676.09 288.163 676.825 290.196 678.112C297.558 682.775 302.716 691.378 317.125 697.568C325.432 701.136 340.014 701.829 347.435 700.786L356.822 706.732C363.755 711.123 368.385 693.504 364.726 693.414C361.067 693.325 358.008 697.354 358.008 697.354L354.242 695.036C358.423 688.476 359.623 681.701 359.349 672.867Z" fill="#F88101"/>
</g>
<path d="M279.4 674.756C281.454 676.056 288.163 676.792 290.196 678.079C290.196 678.079 291.541 676.331 291.913 674.111C292.285 671.89 291.544 670.032 291.544 670.032L287.267 668.895C287.267 668.895 288.647 665.707 285.747 662.362C282.846 659.016 277.346 673.455 279.4 674.756Z" fill="#351D00"/>
<path d="M358.031 697.365L354.265 695.047C354.265 695.047 351.817 695.522 350.488 696.645C349.159 697.767 347.459 700.797 347.459 700.797L356.845 706.741C363.777 711.131 368.407 693.515 364.748 693.425C361.089 693.336 358.031 697.365 358.031 697.365Z" fill="#351D00"/>
<path d="M350.646 660.87C351.34 658.835 347.425 651.785 345.769 651.074C341.339 649.17 333.309 645.5 329.175 645.344C324.481 645.167 320.886 647.486 318.793 649.565C313.873 654.452 316.157 660.194 318.242 664.45C319.599 667.22 323.404 675.209 325.207 677.524C326.844 678.928 326.231 680.344 326.231 680.344C326.231 680.344 326.946 678.691 329.484 678.661C333.53 676.699 340.749 673.213 344.083 672.473C347.458 671.723 351.112 663.684 350.646 660.87Z" fill="white"/>
<g filter="url(#filter11_f)">
<path d="M334.321 540.229C326.269 540.534 313.786 578.357 306.294 598.267L352.672 586.909C355.846 573.045 342.372 539.923 334.321 540.229Z" fill="white"/>
</g>
<path d="M400.189 565.506C406.918 569.904 400.069 605.245 393.733 623.883L359.957 590.328C364.443 576.819 393.46 561.108 400.189 565.506Z" fill="white"/>
<g filter="url(#filter12_f)">
<path d="M362.313 586.068C366.799 572.562 393.449 561.106 400.177 565.504C401.511 566.375 402.245 567.584 402.374 569.419C398.933 564.897 376.891 582.491 372.167 594.924L362.313 586.068Z" fill="url(#paint5_linear)"/>
</g>
<g filter="url(#filter13_f)">
<path d="M353.548 583.823C357.527 570.162 340.144 540.103 335.006 540.041C333.496 540.023 330.775 540.648 329.632 543.652C335.047 541.86 343.541 572.67 340.369 585.58L353.548 583.823Z" fill="url(#paint6_linear)"/>
</g>
<g filter="url(#filter14_f)">
<path d="M387.69 599.357C397.674 611.979 401.33 637.693 399.231 646.754C399.231 646.754 374.384 659.864 337.32 647.099C294.151 632.232 290.121 603.952 290.121 603.952C295.98 596.527 317.766 576.644 327.794 574.451C339.954 571.792 350.428 572.574 361.012 576.269C371.596 579.964 378.738 588.039 387.69 599.357Z" fill="#F88101"/>
</g>
<path d="M338.335 647.893C295.158 633.022 290.123 603.929 290.123 603.929C297.934 601.645 307.962 603.142 316.922 605.972C330.264 610.185 343.7 622.778 347.144 622.605C350.589 622.432 364.396 621.837 372.241 625.092C382.237 629.238 392.794 636.089 399.253 646.743C399.253 646.743 375.405 660.661 338.335 647.893Z" fill="white"/>
<path d="M327.395 679.298C325.068 682.091 327.969 685.422 334.76 683.998C334.667 683.292 334.698 681.55 334.145 680.236C332.761 676.951 330.883 678.136 330.358 678.611C329.204 679.655 328.152 678.388 327.395 679.298Z" fill="black"/>
<path d="M348.018 678.97C345.563 680.075 339.501 683.046 333.605 684.243C328.138 685.354 325.069 682.092 327.395 679.3C328.152 678.39 329.001 679.392 330.019 678.747C332.124 677.414 334.417 676.121 338.038 674.686C342.334 672.984 344.704 673.02 347.318 670.225" stroke="#C66400" stroke-opacity="0.5" stroke-width="0.5" stroke-linecap="round" stroke-linejoin="round"/>
<path d="M317.921 678.162C320.531 682.503 325.809 682.949 326.006 679.254C326.101 677.471 324.1 677.176 323.479 675.369C323.085 674.223 320.858 674.943 319.637 675.819C318.416 676.695 317.921 678.162 317.921 678.162Z" fill="black"/>
<path d="M316.232 657.896C316.269 662.673 319.372 666.525 320.651 668.754C321.851 670.845 323.508 675.442 324.57 676.878C325.278 677.835 326.249 677.595 326.154 679.378C325.957 683.074 321.254 682.594 318.506 678.894C315.131 674.348 310.03 666.713 310.122 664.233" stroke="#C66400" stroke-opacity="0.5" stroke-width="0.5" stroke-linecap="round" stroke-linejoin="round"/>
<path d="M347.28 621.12C348.929 621.514 351.385 622.446 351.189 623.259C350.993 624.073 348.889 625.291 346.417 624.7C343.565 624.018 342.626 622.073 342.822 621.26C343.018 620.446 345.631 620.726 347.28 621.12Z" fill="black"/>
<path d="M351.052 636.626L343.421 630.512L335.164 632.121" stroke="black" stroke-linecap="round" stroke-linejoin="round"/>
<ellipse rx="5.29621" ry="4.11765" transform="matrix(-0.77996 -0.624994 -0.627893 0.778973 373.3 624.789)" fill="black"/>
<ellipse rx="5.30111" ry="4.11176" transform="matrix(0.999548 -0.0501533 0.0490907 0.997987 323.241 608.352)" fill="black"/>
<path d="M336.265 652.688C337.28 652.843 338.52 654.31 338.114 656.841C337.559 660.298 337.446 660.199 337.239 660.097C336.793 658.888 336.064 656.85 335.507 656.381C334.95 655.913 334.944 655.911 334.648 655.772C335.886 656.965 335.685 658.588 335.163 661.252C334.642 663.917 334.368 663.907 334.297 663.569C333.865 662.119 332.8 659.225 331.995 659.252" stroke="black" stroke-width="0.5" stroke-linecap="round" stroke-linejoin="round"/>
</g>
<g opacity="0.84">
<path d="M227.072 671.667L313.687 645.382V745.147L227.072 770.536V671.667Z" fill="url(#paint7_linear)" fill-opacity="0.5"/>
<path d="M130.833 655.009L218.651 630.941V726.869L130.833 750.078V655.009Z" fill="url(#paint8_linear)" fill-opacity="0.5"/>
<path d="M217.448 630.941L313.687 647.311L313.38 748.875L217.448 728.312V630.941Z" fill="url(#paint9_linear)" fill-opacity="0.5"/>
<path d="M130.833 654.45L229.347 671.928V772.577L130.833 752.387V654.45Z" fill="url(#paint10_linear)" fill-opacity="0.57"/>
</g>
<g filter="url(#filter15_df)">
<path d="M617.723 561.98C610.458 560.944 597.286 563.42 595.094 564.123L630.349 588.281C635.029 586.138 644.319 580.397 644.036 574.574C643.681 567.294 626.803 563.275 617.723 561.98Z" fill="url(#paint11_linear)"/>
<path d="M537.608 563.292C529.313 568.5 522.744 577.295 519.135 583.8L513.117 594.647C499.746 595.479 479.571 604.846 493.63 629.773C503.337 646.985 526.001 650.427 537.354 646.568C538.157 646.295 543.545 649.98 552.671 650.626C561.796 651.273 565.237 651.166 573.412 651.605C588.55 652.418 589.663 649.715 598.635 656.684C607.607 663.653 611.11 665.865 613.546 672.435C611.882 674.799 599.511 674.592 591.921 676.703C584.33 678.815 577.355 685.603 579.291 691.552C585.924 692.687 590.53 689.262 595.886 693.905C598.656 696.306 598.608 699.635 598.608 699.635C598.608 699.635 602.286 700.805 605.514 705.638C607.921 709.241 604.164 710.659 609.339 713.511C619.911 713.943 630.239 704.972 631.04 693.883C631.84 682.794 630.797 682.17 632.899 678.382C637.876 673.369 646.933 657.282 648.589 650.101C650.246 642.919 655.479 631.733 650.714 615.185C645.289 596.343 636.261 583.384 620.479 574.685C604.697 565.985 599.219 564.318 585.118 560.476C559.58 553.518 545.903 558.084 537.608 563.292Z" fill="url(#paint12_linear)"/>
<path d="M602.25 659.95C610.863 666.048 611.771 668.066 613.6 671.774C614.952 670.173 614.464 664.841 609.575 658.928C603.464 651.537 601.792 649.932 587.145 644.539C580.011 641.912 572.36 642.267 559.083 645.004C546.731 647.549 545.568 648.447 544.572 649.407C549.558 650.469 563.437 651.447 571.06 651.606C576.905 651.729 591.089 652.049 602.25 659.95Z" fill="white"/>
<path d="M572.188 656.307C571.778 650.813 571.307 641.659 572.566 637.969L597.186 642.605C597.266 648.55 593.386 657.977 591.209 661.902C589.031 665.828 583.168 673.656 579.922 673.722C576.172 671.654 572.568 661.406 572.188 656.307Z" fill="url(#paint13_linear)"/>
<ellipse rx="3.69239" ry="4.13453" transform="matrix(0.87576 0.482747 -0.48514 0.874437 524.865 598.074)" fill="black"/>
<ellipse rx="4.13562" ry="4.13467" transform="matrix(0.87576 0.482747 -0.485139 0.874437 548.224 622.078)" fill="black"/>
</g>
<g filter="url(#filter16_d)">
<path d="M424.039 717.297C427.866 712.82 435.418 715.858 436.513 722.194C437.204 726.194 435.631 727.898 433.6 728.179C437.95 727.902 445.853 728.573 448.474 735.781C450.698 741.898 443.933 746.139 441.782 745.759C443.878 747.035 447.448 751.858 444.894 755.665C442.407 759.374 435.683 760.097 433.55 759.165C435.73 760.311 437.603 764.881 433.233 767.939C429.075 770.849 426.172 766.668 425.811 764.39C426.016 768.152 424.242 772.711 418.057 771.618C414.107 770.92 411.84 765.943 412.605 763.865C410.323 765.976 406.517 766.84 402.921 763.186C398.274 758.466 401.369 753.731 402.058 753.249L424.039 717.297Z" fill="white"/>
<path d="M361.276 670.889C369.435 670.977 373.558 667.547 386.028 662.422L390.196 674.115L358.663 688.337C356.152 688.604 348.223 689.291 339.581 683.532C323.986 673.139 328.24 660.76 334.919 663.308C341.178 665.696 353.118 670.801 361.276 670.889Z" fill="#DB7599"/>
<path d="M328.009 690.216C339.025 694.512 343.536 696.377 347.409 695.151L372.651 728.38L325.103 712.938C321.53 712.721 314.781 709.946 303.945 703.865C293.133 697.8 291.598 689.928 296.184 683.088C297.656 680.893 302.958 671.638 311.182 674.575C316.947 676.634 317.485 680.637 316.294 683.93C320.979 687.053 323.442 688.434 328.009 690.216Z" fill="#DB759A"/>
<g filter="url(#filter17_f)">
<path d="M321.995 717.092C319.666 728.021 329.354 734.885 349.114 748.053C359.769 755.154 371.793 763.479 384.15 765.296C396.508 767.113 404.322 760.547 408.619 754.139C410.271 751.674 412.75 747.977 412.676 743.292L425.128 691.683L412.611 686.907L381.523 722.531C371.223 722.441 369.444 725.179 359.727 721.555C353.753 719.328 350.009 717.932 343.259 714.146C344.911 711.682 343.188 707.324 337.589 705.019C329.684 701.764 323.195 711.461 321.995 717.092Z" fill="#F283AB"/>
</g>
<path d="M424.348 721.855C422.075 712.458 428.638 702.19 423.21 696.433L419.009 695.772L404.797 716.968C401.984 723.295 403.532 733.241 405.584 738.174C407.635 743.107 416.686 750.921 425.091 751.174C433.495 751.426 435.657 740.743 432.943 737.864C430.228 734.986 426.621 731.252 424.348 721.855Z" fill="#F283AB"/>
<path d="M423.001 696.764C428.453 702.519 421.922 711.955 424.241 721.315C427.389 734.018 430.209 735.152 432.936 738.03C435.662 740.907 433.557 751.524 425.159 751.23C416.761 750.936 407.68 743.116 405.605 738.199C403.531 733.281 401.933 723.379 404.711 717.099" stroke="#E878A8" stroke-linecap="round" stroke-linejoin="round"/>
<path d="M366.554 724.143C364.53 723.623 362.281 722.883 359.464 721.824C353.496 719.58 349.756 718.174 343.005 714.379C344.638 711.943 342.896 707.611 337.3 705.291C329.402 702.017 326.38 708.233 323.659 712.293C322.74 714.073 320.904 718.471 320.904 721.821C320.904 726.009 324.514 734.433 329.326 735.637" stroke="#EC89B4" stroke-width="2" stroke-linecap="round" stroke-linejoin="round"/>
<path d="M401.359 679.543C406.796 688.421 412.439 686.336 411.236 697.685C410.534 704.308 391.862 722.656 382.964 724.605C373.886 726.595 369.957 725.523 359.962 721.026C353.438 718.091 346.69 711.416 345.856 703.635C345.022 695.855 350.828 691.677 361.526 684.964C373.2 677.638 379.751 670.069 387.937 670.599C396.124 671.129 393.501 673.979 397.46 674.975L401.359 679.543Z" fill="white"/>
<g filter="url(#filter18_f)">
<path d="M460.705 691.133C454.825 699.902 448.567 701.781 443.693 702.112C425.143 703.376 399.688 682.439 391.871 675.447C384.054 668.455 374.343 660.558 375.362 644.121C376.359 628.026 398.83 614.362 410.442 613.652C429.07 612.514 424.788 612.706 435.735 618.026C447.593 623.787 456.149 632.341 463.056 641.223C469.962 650.104 471.063 657.33 471.588 662.598C472.236 669.092 468.761 679.12 460.705 691.133Z" fill="url(#paint14_linear)"/>
</g>
<g filter="url(#filter19_f)">
<path d="M452.695 640.93C456.097 634.396 460.872 630.893 470.022 625.513C482.394 618.237 490.339 618.495 496.234 621.586C501.256 624.219 499.736 661.383 488.6 664.858C482.176 666.863 477.208 659.778 476.774 655.321C476.597 653.491 476.518 650.96 476.65 648.13C471.85 650.294 466.592 654.607 466.592 654.607L452.695 640.93Z" fill="url(#paint15_linear)"/>
</g>
<path d="M476.767 648.257C477.171 644.208 480.389 632.74 483.464 631.388" stroke="#E49DB3" stroke-linecap="round" stroke-linejoin="round"/>
<g filter="url(#filter20_f)">
<path d="M438.151 580.178C431.541 590.035 424.297 607.208 420.324 617.396L439.916 627.601C445.836 619.304 454.654 603.727 459.878 594.658C466.407 583.321 471.748 569.946 461.908 564.991C450.959 559.476 444.747 570.339 438.151 580.178Z" fill="url(#paint16_linear)"/>
</g>
<path d="M436.981 589.61C431.359 600.075 427.137 610.762 425.92 614.179C425.92 614.179 427.866 614.479 429.012 614.831C430.159 615.182 431.792 615.978 431.792 615.978C437.003 608.449 442.713 600.273 447.669 592.296C453.865 582.326 459.774 571.045 454.954 569.272C450.719 567.715 441.988 580.288 436.981 589.61Z" fill="white"/>
<path d="M480.83 634.094C473.878 637.446 469.204 641.611 465.942 645.074C465.942 645.074 467.167 646.515 467.674 647.403C468.181 648.292 468.539 649.624 468.539 649.624C474.893 646.813 477.182 645.755 477.229 645.082C477.341 643.512 477.394 643.783 478.214 640.806C479.467 636.252 481.852 633.601 480.83 634.094Z" fill="white"/>
<path d="M402.368 641.767C400.282 643.619 398.245 644.732 396.617 642.907C394.988 641.081 396.334 639.193 398.421 637.342C400.507 635.491 402.553 634.387 404.172 636.202C405.791 638.018 404.454 639.916 402.368 641.767Z" fill="black"/>
<path d="M431.665 670.78C429.747 672.804 427.815 674.089 426.034 672.412C424.253 670.734 425.43 668.737 427.348 666.712C429.266 664.688 431.208 663.412 432.979 665.081C434.75 666.749 433.583 668.756 431.665 670.78Z" fill="black"/>
<rect width="15.4784" height="2.48093" rx="1.24047" transform="matrix(0.860133 0.510356 -0.512539 0.858494 432.229 657.118)" fill="black"/>
<rect width="15.4772" height="2.48129" rx="1.24065" transform="matrix(0.520823 0.852415 -0.855249 0.520271 405.908 625.767)" fill="black"/>
<path d="M395.879 652.887C393.836 653.8 395.106 655.735 396.73 657.309C398.354 658.883 402.532 659.213 405.111 657.366C402.393 659.721 400.167 662.297 404.282 665.485C406.093 666.888 408.694 667.513 409.943 666.23" stroke="black" stroke-linecap="round" stroke-linejoin="round"/>
<path d="M409.199 654.219C407.499 652.29 404.502 649.661 403.546 650.5C402.589 651.339 402.441 655.019 404.991 657.91C407.933 661.247 411.218 661.126 412.175 660.287C413.131 659.448 410.9 656.148 409.199 654.219Z" fill="black"/>
</g>
<g filter="url(#filter21_df)">
<path d="M698.533 621.898C704.721 621.72 714.208 622.371 718.596 625.53L714.4 629.137C712.236 632.978 709.543 635.575 703.178 640.198C695.223 645.977 683.719 645.671 679.076 645.262C674.434 644.853 668.636 644.081 661.356 638.61C654.077 633.139 646.239 622.821 649.426 617.496C654.047 609.774 666.548 617.052 671.644 620.103C677.165 623.409 690.798 622.12 698.533 621.898Z" fill="black" stroke="black"/>
<path d="M703.704 628.351C712.197 625.508 717.916 625.157 722.845 624.711C727.774 624.265 740.276 635.153 740.276 635.153C741.832 636.086 764.332 647.676 764.799 657.021C765.267 666.366 757.132 673.956 750.079 681.439C741.361 691.45 722.085 714.524 696.115 708.408C679.994 704.612 661.978 694.756 645.691 678.2C633.607 665.917 633.259 653.756 637.81 641.375C641.784 630.564 664.529 626.928 671.731 626.571C678.719 626.225 696.078 630.905 703.704 628.351Z" fill="white"/>
<path d="M701.732 628.307C710.632 624.771 717.723 625.64 722.824 624.896C727.926 624.153 740.228 635.323 740.228 635.323C741.782 636.254 764.348 647.662 764.335 657.789C764.322 667.916 750.122 681.367 742.46 689.867C739.068 682.627 738.07 667.31 720.861 652.013C703.653 636.716 694.575 632.226 685.995 627.746C689.226 627.728 699.539 629.178 701.732 628.307Z" fill="black"/>
<path d="M743.49 572.51C730.336 574.714 732.724 584.245 736.568 592.78L755.905 588.806C757.392 583.172 757.534 570.157 743.49 572.51Z" fill="black"/>
<path d="M809.812 626.49C810.044 639.789 800.21 639.188 791.092 636.978L791.475 617.296C796.758 614.81 809.565 612.293 809.812 626.49Z" fill="#0D0D0D"/>
<path d="M759.819 684.265C763.042 678.919 764.717 671.581 764.088 666.373C764.088 666.373 764.524 657.746 760.554 655.368C756.584 652.989 751.668 656.887 741.742 670.761C730.336 686.702 731.212 692.444 730.997 697.018C730.782 701.593 733.443 711.605 738.886 717.14C744.205 722.548 753.959 723.815 759.029 720.133C766.379 714.794 758.285 702.47 756.475 697.88C754.589 693.1 757.57 687.996 759.819 684.265Z" fill="black" stroke="black"/>
<path d="M789.702 656.939C785.223 667.069 776.469 669.323 768.407 668.361C754.661 666.721 735.617 651.408 728.438 644.846C721.258 638.283 701.575 624.457 704.027 608.22C705.03 601.571 708.168 597.453 714.92 594.454C724.314 590.281 733.805 588.926 740.521 587.832C744.716 587.148 752.765 585.076 760.16 587.538C765.436 589.295 771.989 593.345 777.959 598.01C783.293 602.178 786.421 605.085 790.436 611.024C794.451 616.963 793.325 626.205 793.562 631.416C793.816 637.028 794.716 645.597 789.702 656.939Z" fill="white"/>
<path d="M745.681 628.611C744.216 627.349 741.714 625.698 741.088 626.42C740.462 627.143 740.73 629.898 742.926 631.79C745.46 633.973 747.895 633.547 748.521 632.825C749.147 632.102 747.146 629.873 745.681 628.611Z" fill="black"/>
<path d="M708.171 714.846C703.188 710.485 709.169 701.899 709.323 695.715C709.478 689.531 708.232 685.43 700.638 680.883C692.29 675.885 685.038 678.107 680.245 682.858C677.501 685.579 674.953 687.461 673.48 694.075C672.007 700.689 675.159 711.166 677.478 718.027C679.708 724.626 684.086 732.305 689.548 736.529C696.27 741.726 702.492 743.696 706.162 742.21C709.832 740.724 717.302 734.528 715.703 726.391C714.952 722.568 713.017 719.088 708.171 714.846Z" fill="black" stroke="black"/>
<path d="M622.512 640.381C627.4 643.31 637.516 639.805 639.017 639.964C639.017 639.964 645.53 637.915 649.045 640.021C654.649 643.378 656.249 647.433 655.341 651.976C654.433 656.519 652.068 659.7 648.541 663.256C644.579 667.25 639.955 667.752 639.955 667.752C637.012 668.018 626.708 665.596 620.837 663.629C615.191 661.737 608.47 658.164 604.517 653.852C599.652 648.545 600.144 645.517 601.065 642.736C601.985 639.955 608.511 634.462 612.089 635.217C616.059 636.055 616.401 636.72 622.512 640.381Z" fill="black" stroke="black"/>
<path d="M744.493 618.196C745.796 616.102 744.777 613.198 744.081 611.992C743.076 610.252 741.771 609.447 740.046 608.751C738.748 608.227 735.828 607.698 733.834 607.741C731.839 607.783 730.424 607.254 728.988 608.014C727.552 608.774 726.076 610.042 725.878 611.927C725.68 613.812 726.721 616.181 729.261 618.368C732.938 621.532 736.737 621.539 738.328 621.477C740.182 621.405 742.865 620.813 744.493 618.196Z" fill="black"/>
<path d="M757.647 629.539C759.394 627.795 762.462 628.119 763.798 628.519C765.728 629.096 766.812 630.178 767.886 631.693C768.695 632.833 769.879 635.546 770.294 637.492C770.708 639.438 771.549 640.69 771.135 642.258C770.722 643.826 769.821 645.549 768.026 646.172C766.231 646.796 763.68 646.328 760.964 644.362C757.033 641.518 756.158 637.833 755.854 636.274C755.501 634.457 755.464 631.718 757.647 629.539Z" fill="black"/>
<path d="M737.926 637.391C738.546 638.818 739.992 640.28 741.408 641.429C743.401 643.047 744.734 643.633 746.162 643.381" stroke="black" stroke-linecap="round"/>
<ellipse rx="3.0792" ry="1.8941" transform="matrix(0.943469 0.332913 -0.334752 0.941794 739.822 617.297)" fill="white"/>
<ellipse rx="3.07828" ry="1.86351" transform="matrix(-0.483909 -0.873894 -0.876768 0.483137 760.096 633.204)" fill="white"/>
</g>
<g filter="url(#filter22_d)">
<path d="M616.079 782.977C618.532 780.472 624.715 781.9 628.324 783.031C629.66 783.45 630.037 785.085 629.083 786.108L620.136 795.701C619.186 796.719 617.532 796.471 617.008 795.182C615.572 791.645 613.611 785.497 616.079 782.977Z" fill="#00982B"/>
<path d="M616.079 782.977C618.532 780.472 624.715 781.9 628.324 783.031C629.66 783.45 630.037 785.085 629.083 786.108L620.136 795.701C619.186 796.719 617.532 796.471 617.008 795.182C615.572 791.645 613.611 785.497 616.079 782.977Z" fill="url(#paint17_linear)"/>
<path d="M600.325 622.847C603.065 620.657 609.029 622.823 612.474 624.382C613.749 624.959 613.925 626.628 612.854 627.528L602.805 635.967C601.738 636.863 600.126 636.417 599.763 635.074C598.768 631.39 597.569 625.049 600.325 622.847Z" fill="#00982B"/>
<path d="M600.325 622.847C603.065 620.657 609.029 622.823 612.474 624.382C613.749 624.959 613.925 626.628 612.854 627.528L602.805 635.967C601.738 636.863 600.126 636.417 599.763 635.074C598.768 631.39 597.569 625.049 600.325 622.847Z" fill="url(#paint18_linear)"/>
<path d="M576.679 659.403C576.885 655.907 582.496 652.947 585.965 651.445C587.25 650.889 588.608 651.879 588.56 653.275L588.107 666.368C588.059 667.758 586.647 668.652 585.405 668.02C581.995 666.286 576.471 662.92 576.679 659.403Z" fill="#00982B"/>
<path d="M576.679 659.403C576.885 655.907 582.496 652.947 585.965 651.445C587.25 650.889 588.608 651.879 588.56 653.275L588.107 666.368C588.059 667.758 586.647 668.652 585.405 668.02C581.995 666.286 576.471 662.92 576.679 659.403Z" fill="url(#paint19_linear)"/>
<path d="M629.428 758.943C630.033 755.493 635.946 753.192 639.565 752.094C640.904 751.687 642.141 752.825 641.933 754.206L639.983 767.162C639.776 768.538 638.271 769.265 637.109 768.496C633.921 766.385 628.818 762.413 629.428 758.943Z" fill="#00982B"/>
<path d="M629.428 758.943C630.033 755.493 635.946 753.192 639.565 752.094C640.904 751.687 642.141 752.825 641.933 754.206L639.983 767.162C639.776 768.538 638.271 769.265 637.109 768.496C633.921 766.385 628.818 762.413 629.428 758.943Z" fill="url(#paint20_linear)"/>
<path d="M615.972 727.654C614.686 724.395 618.522 719.358 621.033 716.54C621.963 715.496 623.613 715.825 624.157 717.112L629.267 729.187C629.81 730.469 628.906 731.873 627.512 731.819C623.691 731.674 617.266 730.933 615.972 727.654Z" fill="#00982B"/>
<path d="M615.972 727.654C614.686 724.395 618.522 719.358 621.033 716.54C621.963 715.496 623.613 715.825 624.157 717.112L629.267 729.187C629.81 730.469 628.906 731.873 627.512 731.819C623.691 731.674 617.266 730.933 615.972 727.654Z" fill="url(#paint21_linear)"/>
<path d="M589.669 698.43C587.403 695.754 589.417 689.755 590.889 686.283C591.434 684.996 593.102 684.78 594.032 685.825L602.754 695.63C603.68 696.67 603.276 698.289 601.939 698.684C598.272 699.769 591.95 701.122 589.669 698.43Z" fill="#00982B"/>
<path d="M589.669 698.43C587.403 695.754 589.417 689.755 590.889 686.283C591.434 684.996 593.102 684.78 594.032 685.825L602.754 695.63C603.68 696.67 603.276 698.289 601.939 698.684C598.272 699.769 591.95 701.122 589.669 698.43Z" fill="url(#paint22_linear)"/>
<path d="M626.263 727.83C620.204 715.429 620.559 711.124 619.38 709.637L641.37 681.046L683.136 664.517C683.136 664.517 692.962 662.144 708.903 678.032C727.551 696.618 719.896 714.991 716.831 720.626C712.816 728.006 712.594 730.482 705.454 738.175C701.392 742.551 695.068 749.844 682.988 758.018C669.754 766.972 665.066 767.304 665.066 767.304C665.066 767.304 650.032 780.401 640.724 786.478C631.906 792.236 617.75 802.964 614.477 798.834C611.204 794.703 630.301 781.807 635.254 769.05C640.207 756.293 639.835 746.658 639.835 746.658C639.835 746.658 632.323 740.231 626.263 727.83Z" fill="#73ED69"/>
<path d="M626.263 727.83C620.204 715.429 620.559 711.124 619.38 709.637L641.37 681.046L683.136 664.517C683.136 664.517 692.962 662.144 708.903 678.032C727.551 696.618 719.896 714.991 716.831 720.626C712.816 728.006 712.594 730.482 705.454 738.175C701.392 742.551 695.068 749.844 682.988 758.018C669.754 766.972 665.066 767.304 665.066 767.304C665.066 767.304 650.032 780.401 640.724 786.478C631.906 792.236 617.75 802.964 614.477 798.834C611.204 794.703 630.301 781.807 635.254 769.05C640.207 756.293 639.835 746.658 639.835 746.658C639.835 746.658 632.323 740.231 626.263 727.83Z" fill="url(#paint23_linear)"/>
<path d="M700.696 662.799L690.347 670.775C690.347 670.775 690.818 674.104 692.303 675.374C693.835 676.685 697.332 676.562 697.332 676.562L703.961 666.192L709.704 664.147L706.582 663.084L707.852 659.452L703.754 660.245L702.902 657.318L700.696 662.799Z" fill="#73ED69"/>
<path d="M700.696 662.799L690.347 670.775C690.347 670.775 690.818 674.104 692.303 675.374C693.835 676.685 697.332 676.562 697.332 676.562L703.961 666.192L709.704 664.147L706.582 663.084L707.852 659.452L703.754 660.245L702.902 657.318L700.696 662.799Z" fill="url(#paint24_linear)"/>
<path d="M717.166 720.621C710.56 725.824 707.105 721.569 698.685 724.177C696.261 724.928 695.361 720.014 692.075 721.603C687.662 723.737 681.313 730.08 681.313 730.08C667.776 722.497 654.808 702.394 651.863 692.907C648.835 683.152 653.92 679.213 653.92 679.213L683.475 664.519C683.475 664.519 693.3 662.146 709.239 678.033C727.884 696.616 722.761 716.214 717.166 720.621Z" fill="#CDFA84"/>
<path d="M661.966 711.786C661.966 711.786 676.816 709.041 695.382 692.173C706.486 682.084 705.374 674.909 705.374 674.909" stroke="#B6BA05" stroke-opacity="0.5" stroke-linecap="round" stroke-linejoin="round"/>
<path d="M661.966 711.786C661.966 711.786 676.816 709.041 695.382 692.173C706.486 682.084 705.374 674.909 705.374 674.909" stroke="#B6BA05" stroke-linecap="round" stroke-linejoin="round"/>
<path d="M653.94 698.256C653.94 698.256 671.977 694.202 686.346 682.123C697.163 673.029 696.611 668.937 696.611 668.937" stroke="#B6BA05" stroke-opacity="0.5" stroke-linecap="round" stroke-linejoin="round"/>
<path d="M653.94 698.256C653.94 698.256 671.977 694.202 686.346 682.123C697.163 673.029 696.611 668.937 696.611 668.937" stroke="#B6BA05" stroke-linecap="round" stroke-linejoin="round"/>
<path d="M671.587 723.251C671.587 723.251 694.298 709.84 702.865 702.638C717.234 690.558 714.768 685.747 714.768 685.747" stroke="#B6BA05" stroke-opacity="0.5" stroke-linecap="round" stroke-linejoin="round"/>
<path d="M671.587 723.251C671.587 723.251 694.298 709.84 702.865 702.638C717.234 690.558 714.768 685.747 714.768 685.747" stroke="#B6BA05" stroke-linecap="round" stroke-linejoin="round"/>
<path d="M706.114 715.905C706.114 715.905 707.319 715.409 715.886 708.208C720.245 704.543 722.742 697.171 722.742 697.171" stroke="#B6BA05" stroke-opacity="0.5" stroke-linecap="round" stroke-linejoin="round"/>
<path d="M706.114 715.905C706.114 715.905 707.319 715.409 715.886 708.208C720.245 704.543 722.742 697.171 722.742 697.171" stroke="#B6BA05" stroke-linecap="round" stroke-linejoin="round"/>
<g filter="url(#filter23_f)">
<path d="M584.056 668.528C586.845 691.291 609.962 706.892 617.532 708.979C628.002 713.272 637.074 703.777 645.85 696.865C648.528 694.756 650.932 690.72 650.932 690.72C670.524 688.973 687.882 672.057 694.035 658.911C700.188 645.764 690.649 628.841 679.049 622.684C667.448 616.526 656.663 617.508 650.613 620.395C644.564 623.282 635.874 617.064 624.945 618.884C614.017 620.703 606.116 625.665 596.635 634.743C588.558 642.476 581.689 649.216 584.056 668.528Z" fill="url(#paint25_linear)"/>
<path d="M584.056 668.528C586.845 691.291 609.962 706.892 617.532 708.979C628.002 713.272 637.074 703.777 645.85 696.865C648.528 694.756 650.932 690.72 650.932 690.72C670.524 688.973 687.882 672.057 694.035 658.911C700.188 645.764 690.649 628.841 679.049 622.684C667.448 616.526 656.663 617.508 650.613 620.395C644.564 623.282 635.874 617.064 624.945 618.884C614.017 620.703 606.116 625.665 596.635 634.743C588.558 642.476 581.689 649.216 584.056 668.528Z" fill="url(#paint26_linear)"/>
</g>
<path d="M667.938 696.122L652.048 703.755C652.048 703.755 652.391 708.517 654.294 710.585C655.883 712.311 659.639 713.337 659.639 713.337L671.293 701.509L679.443 700.414L675.622 698.141L678.317 693.704L672.689 693.607L672.386 689.508L667.938 696.122Z" fill="#73ED69"/>
<path d="M667.938 696.122L652.048 703.755C652.048 703.755 652.391 708.517 654.294 710.585C655.883 712.311 659.639 713.337 659.639 713.337L671.293 701.509L679.443 700.414L675.622 698.141L678.317 693.704L672.689 693.607L672.386 689.508L667.938 696.122Z" fill="url(#paint27_linear)"/>
<path d="M716.138 711.396C722.455 718.531 721.255 724.61 716.344 731.266C711.532 737.789 700.159 738.121 694.542 732.079C690.956 727.14 688.245 724.933 688.572 721.379C688.707 719.913 694.516 718.084 694.516 718.084C694.516 718.084 691.847 713.035 693.122 711.715C694.173 710.628 700.537 711.132 700.537 711.132C700.537 711.132 699.589 707.44 700.389 705.673C702.394 705.038 712.567 707.364 716.138 711.396Z" fill="#6CCD63"/>
<path d="M716.138 711.396C722.455 718.531 721.255 724.61 716.344 731.266C711.532 737.789 700.159 738.121 694.542 732.079C690.956 727.14 688.245 724.933 688.572 721.379C688.707 719.913 694.516 718.084 694.516 718.084C694.516 718.084 691.847 713.035 693.122 711.715C694.173 710.628 700.537 711.132 700.537 711.132C700.537 711.132 699.589 707.44 700.389 705.673C702.394 705.038 712.567 707.364 716.138 711.396Z" fill="#6CCE64"/>
<path d="M732.945 682.028C736.899 684.749 741.589 692.939 736.813 699.506C731.697 706.539 724.73 707.143 719.022 703.858C717.138 702.773 710.923 697.396 711.115 693.877C713.103 692.177 715.556 691.477 715.556 691.477C715.556 691.477 712.12 684.528 713.266 683.17C714.21 682.052 721.009 683.78 721.009 683.78C721.009 683.78 720.765 679.395 722.357 678.693C724.209 677.877 728.992 679.307 732.945 682.028Z" fill="#6CCD63"/>
<path d="M732.945 682.028C736.899 684.749 741.589 692.939 736.813 699.506C731.697 706.539 724.73 707.143 719.022 703.858C717.138 702.773 710.923 697.396 711.115 693.877C713.103 692.177 715.556 691.477 715.556 691.477C715.556 691.477 712.12 684.528 713.266 683.17C714.21 682.052 721.009 683.78 721.009 683.78C721.009 683.78 720.765 679.395 722.357 678.693C724.209 677.877 728.992 679.307 732.945 682.028Z" fill="#6CCE64"/>
<rect width="17.2876" height="4.21659" rx="2.1083" transform="matrix(0.520905 -0.852444 0.855386 0.519915 629.89 666.13)" fill="#3D3E30"/>
<ellipse rx="0.84246" ry="1.47441" transform="matrix(0.785559 -0.618786 0.620966 0.783837 679.688 649.275)" fill="black"/>
<ellipse rx="0.842461" ry="1.47441" transform="matrix(0.78557 -0.618772 0.620981 0.783825 688.581 640.124)" fill="black"/>
</g>
<g filter="url(#filter24_d)">
<g filter="url(#filter25_f)">
<path d="M450.836 737.124C452.19 742.866 474.343 759.591 476.932 759.329L478.966 778.263C473.705 772.581 437.279 751.475 434.006 741.071C429.914 728.066 436.028 722.532 444.277 712.382C452.526 702.232 459.315 694.754 459.04 685.364C458.821 677.851 454.799 676.365 448.789 670.404C442.779 664.443 447.501 658.502 457.266 662.289C463.369 664.656 466.184 668.594 470.509 674.268C478.966 685.364 471.083 698.142 465.598 705.869C455.537 720.041 448.857 728.733 450.836 737.124Z" fill="url(#paint28_linear)"/>
</g>
<g filter="url(#filter26_f)">
<path d="M495.155 633.461C490.155 635.538 486.821 656.834 485.78 667.222C485.78 667.222 480.571 694.491 476.144 702.541C462.513 727.328 442.412 756.382 465.33 777.159C493.977 803.129 580.836 789.624 605.838 773.003C644.778 747.116 603.747 706.603 598.025 693.015C587.087 667.045 578.753 650.684 570.419 644.711C565.384 638.824 552.97 622.599 546.199 625.493C543.282 626.739 541.077 642.893 540.73 650.684C537.952 650.338 534.48 650.914 529.271 652.289C524.063 653.664 520.851 654.67 518.073 657.093C512.517 647.917 500.155 631.383 495.155 633.461Z" fill="url(#paint29_linear)"/>
</g>
<path d="M523.962 691.597C519.636 693.139 515.69 693.162 515.148 691.649C514.605 690.135 515.655 688.377 521.997 686.117C526.322 684.574 529.984 683.758 530.811 686.064C531.637 688.371 528.287 690.055 523.962 691.597Z" fill="#4E3F2E"/>
<path d="M568.92 681.47C573.513 681.405 577.218 680.05 577.195 678.443C577.172 676.836 575.571 675.555 568.838 675.65C564.245 675.715 560.528 676.228 560.563 678.677C560.598 681.126 564.327 681.534 568.92 681.47Z" fill="#4E3F2E"/>
<ellipse rx="4.92978" ry="2.35187" transform="matrix(0.970303 -0.241894 0.243179 0.969981 548.168 686.798)" fill="#4E3F2E"/>
<path d="M544.613 698.088C545.946 697.066 547.353 696.149 548.184 694.128C549.015 692.107 548.902 689.669 548.926 688.497C549.328 689.516 551.425 691.823 553.446 692.548C555.466 693.273 557.835 693.436 558.615 693.395" stroke="#4E3F2E" stroke-linecap="round"/>
<path d="M513.124 680.127C513.652 679.124 514.941 677.147 516.005 676.508C517.068 675.869 518.586 675.605 519.195 675.647" stroke="#4E3F2E" stroke-linecap="round"/>
<path d="M574.67 667.152C573.872 666.347 572.062 664.83 570.858 664.528C569.653 664.225 568.124 664.414 567.554 664.631" stroke="#4E3F2E" stroke-linecap="round"/>
<path d="M531.536 730.153C534.573 730.885 541.538 733.628 543.167 735.308C545.202 737.409 544.815 738.554 543.845 739.509C542.978 740.363 541.907 741.132 539.581 740.654C537.72 740.273 532.279 737.504 529.791 736.168" stroke="#A0713D" stroke-opacity="0.5" stroke-linecap="round"/>
<path d="M579.136 728.105C577.377 730.441 572.404 735.4 570.326 736.171C567.728 737.134 566.861 736.372 566.376 735.182C565.942 734.117 565.658 732.909 566.932 731.089C567.952 729.632 572.387 725.993 574.478 724.355" stroke="#A0713D" stroke-opacity="0.5" stroke-linecap="round"/>
<path d="M507.806 648.135C505.592 644.771 503.488 640.604 500.883 641.253C498.019 644.499 497.763 651.33 497.346 653.199C496.929 655.069 496.174 660.601 496.565 664.756C498.301 665.449 502.06 665.769 506.852 664.107C511.644 662.445 513.276 659.735 514.274 657.874C513.536 655.926 511.224 653.329 507.806 648.135Z" fill="white"/>
<path d="M559.143 636.91C556.56 634.048 552.969 629.555 550.886 630.464C549.117 632.672 548.281 637.04 548.281 639.766C548.281 643.57 548.335 647.301 549.117 649.895C550.464 650.431 554.44 651.181 558.16 649.895C561.88 648.608 564.174 646.791 564.949 645.35C564.376 643.842 562.659 640.805 559.143 636.91Z" fill="white"/>
<path d="M545.075 736.538C545.505 733.971 546.55 732.981 547.14 732.493L550.852 741.136C550.852 741.136 548.644 740.026 547.371 740.277C546.413 740.466 544.196 741.78 545.075 736.538Z" fill="#5083B1"/>
<path d="M565.518 732.754C564.778 731.437 564.016 731.162 563.645 731.018L564.186 736.275C564.186 736.275 564.854 735.27 565.458 735.16C565.913 735.077 566.547 734.583 565.518 732.754Z" fill="#5083B1"/>
<path d="M547.28 735.672C545.845 728.14 547.273 719.569 552.907 717.3C558.596 716.718 562.894 722.953 564.46 730.746C565.42 735.522 564.685 741.605 562.535 745.839L554.968 747.267C551.482 744.038 548.355 741.311 547.28 735.672Z" fill="#689FCF"/>
<path d="M552.717 750.881C553.586 748.778 554.075 748.155 554.897 747.253C555.537 746.552 557.449 745.58 558.889 745.308C560.329 745.036 561.881 745.515 562.68 745.784C563.478 746.053 564.848 746.757 565.962 747.94C567.901 749.998 568.05 750.777 567.632 751.482C567.214 752.187 565.232 752.723 563.9 752.187C563.063 751.85 560.317 750.769 559.457 748.287C559.337 750.844 557.764 752.821 556.651 753.556C554.33 755.087 553.156 755.097 552.28 754.381C551.951 754.112 551.765 753.185 552.717 750.881Z" fill="url(#paint30_linear)"/>
<path d="M553.043 717.163C558.253 716.889 561.76 721.711 563.577 726.692L563.558 726.706C561.447 728.311 560.104 729.332 555.527 730.196C550.936 731.062 548.568 730.408 546.627 729.892C546.668 725.476 548.18 718.924 553.043 717.163Z" fill="url(#paint31_linear)"/>
<path d="M556.465 738.809C555.233 738.581 555.388 735.554 555.838 734.316L557.493 734.004C558.203 734.734 559.285 737.412 558.619 738.114C557.953 738.816 557.532 739.007 556.465 738.809Z" fill="url(#paint32_linear)"/>
<ellipse rx="1.08352" ry="1.08259" transform="matrix(0.982635 -0.18555 0.187199 0.982322 552.2 725.531)" fill="#5083B1"/>
</g>
</g>
<defs>
<filter id="filter0_d" x="12" y="17.5522" width="831.954" height="1152.73" filterUnits="userSpaceOnUse" color-interpolation-filters="sRGB">
<feFlood flood-opacity="0" result="BackgroundImageFix"/>
<feColorMatrix in="SourceAlpha" type="matrix" values="0 0 0 0 0 0 0 0 0 0 0 0 0 0 0 0 0 0 127 0" result="hardAlpha"/>
<feOffset/>
<feGaussianBlur stdDeviation="10"/>
<feColorMatrix type="matrix" values="0 0 0 0 0.466667 0 0 0 0 0.968 0 0 0 0 1 0 0 0 0.75 0"/>
<feBlend mode="normal" in2="BackgroundImageFix" result="effect1_dropShadow"/>
<feBlend mode="normal" in="SourceGraphic" in2="effect1_dropShadow" result="shape"/>
</filter>
<filter id="filter1_d" x="100.833" y="78.6614" width="739.772" height="783.453" filterUnits="userSpaceOnUse" color-interpolation-filters="sRGB">
<feFlood flood-opacity="0" result="BackgroundImageFix"/>
<feColorMatrix in="SourceAlpha" type="matrix" values="0 0 0 0 0 0 0 0 0 0 0 0 0 0 0 0 0 0 127 0" result="hardAlpha"/>
<feOffset/>
<feGaussianBlur stdDeviation="15"/>
<feComposite in2="hardAlpha" operator="out"/>
<feColorMatrix type="matrix" values="0 0 0 0 0.779167 0 0 0 0 0.98701 0 0 0 0 1 0 0 0 0.7 0"/>
<feBlend mode="lighten" in2="BackgroundImageFix" result="effect1_dropShadow"/>
<feBlend mode="normal" in="SourceGraphic" in2="effect1_dropShadow" result="shape"/>
</filter>
<filter id="filter2_df" x="379.46" y="594.089" width="181.462" height="144.939" filterUnits="userSpaceOnUse" color-interpolation-filters="sRGB">
<feFlood flood-opacity="0" result="BackgroundImageFix"/>
<feColorMatrix in="SourceAlpha" type="matrix" values="0 0 0 0 0 0 0 0 0 0 0 0 0 0 0 0 0 0 127 0" result="hardAlpha"/>
<feOffset dy="4"/>
<feGaussianBlur stdDeviation="2"/>
<feComposite in2="hardAlpha" operator="out"/>
<feColorMatrix type="matrix" values="0 0 0 0 0 0 0 0 0 0 0 0 0 0 0 0 0 0 0.25 0"/>
<feBlend mode="normal" in2="BackgroundImageFix" result="effect1_dropShadow"/>
<feBlend mode="normal" in="SourceGraphic" in2="effect1_dropShadow" result="shape"/>
<feGaussianBlur stdDeviation="0.375" result="effect2_foregroundBlur"/>
</filter>
<filter id="filter3_f" x="382.96" y="594.339" width="174.462" height="137.189" filterUnits="userSpaceOnUse" color-interpolation-filters="sRGB">
<feFlood flood-opacity="0" result="BackgroundImageFix"/>
<feBlend mode="normal" in="SourceGraphic" in2="BackgroundImageFix" result="shape"/>
<feGaussianBlur stdDeviation="0.25" result="effect1_foregroundBlur"/>
</filter>
<filter id="filter4_df" x="177.358" y="675.92" width="191.085" height="144.939" filterUnits="userSpaceOnUse" color-interpolation-filters="sRGB">
<feFlood flood-opacity="0" result="BackgroundImageFix"/>
<feColorMatrix in="SourceAlpha" type="matrix" values="0 0 0 0 0 0 0 0 0 0 0 0 0 0 0 0 0 0 127 0" result="hardAlpha"/>
<feOffset dy="4"/>
<feGaussianBlur stdDeviation="2"/>
<feComposite in2="hardAlpha" operator="out"/>
<feColorMatrix type="matrix" values="0 0 0 0 0 0 0 0 0 0 0 0 0 0 0 0 0 0 0.25 0"/>
<feBlend mode="normal" in2="BackgroundImageFix" result="effect1_dropShadow"/>
<feBlend mode="normal" in="SourceGraphic" in2="effect1_dropShadow" result="shape"/>
<feGaussianBlur stdDeviation="0.375" result="effect2_foregroundBlur"/>
</filter>
<filter id="filter5_f" x="180.858" y="676.17" width="184.085" height="137.189" filterUnits="userSpaceOnUse" color-interpolation-filters="sRGB">
<feFlood flood-opacity="0" result="BackgroundImageFix"/>
<feBlend mode="normal" in="SourceGraphic" in2="BackgroundImageFix" result="shape"/>
<feGaussianBlur stdDeviation="0.25" result="effect1_foregroundBlur"/>
</filter>
<filter id="filter6_df" x="595.997" y="695.175" width="191.085" height="144.939" filterUnits="userSpaceOnUse" color-interpolation-filters="sRGB">
<feFlood flood-opacity="0" result="BackgroundImageFix"/>
<feColorMatrix in="SourceAlpha" type="matrix" values="0 0 0 0 0 0 0 0 0 0 0 0 0 0 0 0 0 0 127 0" result="hardAlpha"/>
<feOffset dy="4"/>
<feGaussianBlur stdDeviation="2"/>
<feComposite in2="hardAlpha" operator="out"/>
<feColorMatrix type="matrix" values="0 0 0 0 0 0 0 0 0 0 0 0 0 0 0 0 0 0 0.25 0"/>
<feBlend mode="normal" in2="BackgroundImageFix" result="effect1_dropShadow"/>
<feBlend mode="normal" in="SourceGraphic" in2="effect1_dropShadow" result="shape"/>
<feGaussianBlur stdDeviation="0.375" result="effect2_foregroundBlur"/>
</filter>
<filter id="filter7_f" x="599.497" y="695.425" width="184.085" height="137.189" filterUnits="userSpaceOnUse" color-interpolation-filters="sRGB">
<feFlood flood-opacity="0" result="BackgroundImageFix"/>
<feBlend mode="normal" in="SourceGraphic" in2="BackgroundImageFix" result="shape"/>
<feGaussianBlur stdDeviation="0.25" result="effect1_foregroundBlur"/>
</filter>
<filter id="filter8_df" x="251.141" y="539.791" width="155.821" height="175.653" filterUnits="userSpaceOnUse" color-interpolation-filters="sRGB">
<feFlood flood-opacity="0" result="BackgroundImageFix"/>
<feColorMatrix in="SourceAlpha" type="matrix" values="0 0 0 0 0 0 0 0 0 0 0 0 0 0 0 0 0 0 127 0" result="hardAlpha"/>
<feOffset dy="4"/>
<feGaussianBlur stdDeviation="2"/>
<feComposite in2="hardAlpha" operator="out"/>
<feColorMatrix type="matrix" values="0 0 0 0 0 0 0 0 0 0 0 0 0 0 0 0 0 0 0.25 0"/>
<feBlend mode="normal" in2="BackgroundImageFix" result="effect1_dropShadow"/>
<feBlend mode="normal" in="SourceGraphic" in2="effect1_dropShadow" result="shape"/>
<feGaussianBlur stdDeviation="0.125" result="effect2_foregroundBlur"/>
</filter>
<filter id="filter9_f" x="254.641" y="573.472" width="75.3894" height="103.765" filterUnits="userSpaceOnUse" color-interpolation-filters="sRGB">
<feFlood flood-opacity="0" result="BackgroundImageFix"/>
<feBlend mode="normal" in="SourceGraphic" in2="BackgroundImageFix" result="shape"/>
<feGaussianBlur stdDeviation="0.25" result="effect1_foregroundBlur"/>
</filter>
<filter id="filter10_f" x="278.45" y="631.111" width="88.0605" height="76.8238" filterUnits="userSpaceOnUse" color-interpolation-filters="sRGB">
<feFlood flood-opacity="0" result="BackgroundImageFix"/>
<feBlend mode="normal" in="SourceGraphic" in2="BackgroundImageFix" result="shape"/>
<feGaussianBlur stdDeviation="0.25" result="effect1_foregroundBlur"/>
</filter>
<filter id="filter11_f" x="305.794" y="539.727" width="47.8533" height="59.0406" filterUnits="userSpaceOnUse" color-interpolation-filters="sRGB">
<feFlood flood-opacity="0" result="BackgroundImageFix"/>
<feBlend mode="normal" in="SourceGraphic" in2="BackgroundImageFix" result="shape"/>
<feGaussianBlur stdDeviation="0.25" result="effect1_foregroundBlur"/>
</filter>
<filter id="filter12_f" x="361.812" y="564.048" width="41.061" height="31.3758" filterUnits="userSpaceOnUse" color-interpolation-filters="sRGB">
<feFlood flood-opacity="0" result="BackgroundImageFix"/>
<feBlend mode="normal" in="SourceGraphic" in2="BackgroundImageFix" result="shape"/>
<feGaussianBlur stdDeviation="0.25" result="effect1_foregroundBlur"/>
</filter>
<filter id="filter13_f" x="329.132" y="539.541" width="25.5026" height="46.5393" filterUnits="userSpaceOnUse" color-interpolation-filters="sRGB">
<feFlood flood-opacity="0" result="BackgroundImageFix"/>
<feBlend mode="normal" in="SourceGraphic" in2="BackgroundImageFix" result="shape"/>
<feGaussianBlur stdDeviation="0.25" result="effect1_foregroundBlur"/>
</filter>
<filter id="filter14_f" x="289.621" y="572.378" width="110.681" height="80.8063" filterUnits="userSpaceOnUse" color-interpolation-filters="sRGB">
<feFlood flood-opacity="0" result="BackgroundImageFix"/>
<feBlend mode="normal" in="SourceGraphic" in2="BackgroundImageFix" result="shape"/>
<feGaussianBlur stdDeviation="0.25" result="effect1_foregroundBlur"/>
</filter>
<filter id="filter15_df" x="484.855" y="556.433" width="171.814" height="165.093" filterUnits="userSpaceOnUse" color-interpolation-filters="sRGB">
<feFlood flood-opacity="0" result="BackgroundImageFix"/>
<feColorMatrix in="SourceAlpha" type="matrix" values="0 0 0 0 0 0 0 0 0 0 0 0 0 0 0 0 0 0 127 0" result="hardAlpha"/>
<feOffset dy="4"/>
<feGaussianBlur stdDeviation="2"/>
<feComposite in2="hardAlpha" operator="out"/>
<feColorMatrix type="matrix" values="0 0 0 0 0 0 0 0 0 0 0 0 0 0 0 0 0 0 0.25 0"/>
<feBlend mode="normal" in2="BackgroundImageFix" result="effect1_dropShadow"/>
<feBlend mode="normal" in="SourceGraphic" in2="effect1_dropShadow" result="shape"/>
<feGaussianBlur stdDeviation="0.25" result="effect2_foregroundBlur"/>
</filter>
<filter id="filter16_d" x="289.753" y="563.501" width="213.219" height="216.282" filterUnits="userSpaceOnUse" color-interpolation-filters="sRGB">
<feFlood flood-opacity="0" result="BackgroundImageFix"/>
<feColorMatrix in="SourceAlpha" type="matrix" values="0 0 0 0 0 0 0 0 0 0 0 0 0 0 0 0 0 0 127 0" result="hardAlpha"/>
<feOffset dy="4"/>
<feGaussianBlur stdDeviation="2"/>
<feComposite in2="hardAlpha" operator="out"/>
<feColorMatrix type="matrix" values="0 0 0 0 0 0 0 0 0 0 0 0 0 0 0 0 0 0 0.25 0"/>
<feBlend mode="normal" in2="BackgroundImageFix" result="effect1_dropShadow"/>
<feBlend mode="normal" in="SourceGraphic" in2="effect1_dropShadow" result="shape"/>
</filter>
<filter id="filter17_f" x="321.154" y="686.407" width="104.474" height="79.6961" filterUnits="userSpaceOnUse" color-interpolation-filters="sRGB">
<feFlood flood-opacity="0" result="BackgroundImageFix"/>
<feBlend mode="normal" in="SourceGraphic" in2="BackgroundImageFix" result="shape"/>
<feGaussianBlur stdDeviation="0.25" result="effect1_foregroundBlur"/>
</filter>
<filter id="filter18_f" x="374.788" y="612.59" width="97.3769" height="90.0775" filterUnits="userSpaceOnUse" color-interpolation-filters="sRGB">
<feFlood flood-opacity="0" result="BackgroundImageFix"/>
<feBlend mode="normal" in="SourceGraphic" in2="BackgroundImageFix" result="shape"/>
<feGaussianBlur stdDeviation="0.25" result="effect1_foregroundBlur"/>
</filter>
<filter id="filter19_f" x="452.195" y="619.037" width="47.2765" height="46.6706" filterUnits="userSpaceOnUse" color-interpolation-filters="sRGB">
<feFlood flood-opacity="0" result="BackgroundImageFix"/>
<feBlend mode="normal" in="SourceGraphic" in2="BackgroundImageFix" result="shape"/>
<feGaussianBlur stdDeviation="0.25" result="effect1_foregroundBlur"/>
</filter>
<filter id="filter20_f" x="419.824" y="563.001" width="48.0012" height="65.0992" filterUnits="userSpaceOnUse" color-interpolation-filters="sRGB">
<feFlood flood-opacity="0" result="BackgroundImageFix"/>
<feBlend mode="normal" in="SourceGraphic" in2="BackgroundImageFix" result="shape"/>
<feGaussianBlur stdDeviation="0.25" result="effect1_foregroundBlur"/>
</filter>
<filter id="filter21_df" x="595.966" y="571.729" width="217.851" height="179.462" filterUnits="userSpaceOnUse" color-interpolation-filters="sRGB">
<feFlood flood-opacity="0" result="BackgroundImageFix"/>
<feColorMatrix in="SourceAlpha" type="matrix" values="0 0 0 0 0 0 0 0 0 0 0 0 0 0 0 0 0 0 127 0" result="hardAlpha"/>
<feOffset dy="4"/>
<feGaussianBlur stdDeviation="2"/>
<feComposite in2="hardAlpha" operator="out"/>
<feColorMatrix type="matrix" values="0 0 0 0 0 0 0 0 0 0 0 0 0 0 0 0 0 0 0.25 0"/>
<feBlend mode="normal" in2="BackgroundImageFix" result="effect1_dropShadow"/>
<feBlend mode="normal" in="SourceGraphic" in2="effect1_dropShadow" result="shape"/>
<feGaussianBlur stdDeviation="0.25" result="effect2_foregroundBlur"/>
</filter>
<filter id="filter22_d" x="572.673" y="618.13" width="170.158" height="189.627" filterUnits="userSpaceOnUse" color-interpolation-filters="sRGB">
<feFlood flood-opacity="0" result="BackgroundImageFix"/>
<feColorMatrix in="SourceAlpha" type="matrix" values="0 0 0 0 0 0 0 0 0 0 0 0 0 0 0 0 0 0 127 0" result="hardAlpha"/>
<feOffset dy="4"/>
<feGaussianBlur stdDeviation="2"/>
<feComposite in2="hardAlpha" operator="out"/>
<feColorMatrix type="matrix" values="0 0 0 0 0 0 0 0 0 0 0 0 0 0 0 0 0 0 0.25 0"/>
<feBlend mode="normal" in2="BackgroundImageFix" result="effect1_dropShadow"/>
<feBlend mode="normal" in="SourceGraphic" in2="effect1_dropShadow" result="shape"/>
</filter>
<filter id="filter23_f" x="583.083" y="617.63" width="113.38" height="92.9244" filterUnits="userSpaceOnUse" color-interpolation-filters="sRGB">
<feFlood flood-opacity="0" result="BackgroundImageFix"/>
<feBlend mode="normal" in="SourceGraphic" in2="BackgroundImageFix" result="shape"/>
<feGaussianBlur stdDeviation="0.25" result="effect1_foregroundBlur"/>
</filter>
<filter id="filter24_d" x="428.701" y="625.15" width="197.733" height="174.553" filterUnits="userSpaceOnUse" color-interpolation-filters="sRGB">
<feFlood flood-opacity="0" result="BackgroundImageFix"/>
<feColorMatrix in="SourceAlpha" type="matrix" values="0 0 0 0 0 0 0 0 0 0 0 0 0 0 0 0 0 0 127 0" result="hardAlpha"/>
<feOffset dy="4"/>
<feGaussianBlur stdDeviation="2"/>
<feComposite in2="hardAlpha" operator="out"/>
<feColorMatrix type="matrix" values="0 0 0 0 0 0 0 0 0 0 0 0 0 0 0 0 0 0 0.25 0"/>
<feBlend mode="normal" in2="BackgroundImageFix" result="effect1_dropShadow"/>
<feBlend mode="normal" in="SourceGraphic" in2="effect1_dropShadow" result="shape"/>
</filter>
<filter id="filter25_f" x="432.201" y="660.599" width="47.2648" height="118.165" filterUnits="userSpaceOnUse" color-interpolation-filters="sRGB">
<feFlood flood-opacity="0" result="BackgroundImageFix"/>
<feBlend mode="normal" in="SourceGraphic" in2="BackgroundImageFix" result="shape"/>
<feGaussianBlur stdDeviation="0.25" result="effect1_foregroundBlur"/>
</filter>
<filter id="filter26_f" x="454.417" y="624.65" width="168.517" height="167.553" filterUnits="userSpaceOnUse" color-interpolation-filters="sRGB">
<feFlood flood-opacity="0" result="BackgroundImageFix"/>
<feBlend mode="normal" in="SourceGraphic" in2="BackgroundImageFix" result="shape"/>
<feGaussianBlur stdDeviation="0.25" result="effect1_foregroundBlur"/>
</filter>
<linearGradient id="paint0_linear" x1="253.537" y1="108.661" x2="253.537" y2="691.111" gradientUnits="userSpaceOnUse">
<stop stop-color="#95ECFF"/>
<stop offset="1" stop-color="#BAF3FF" stop-opacity="0.81"/>
</linearGradient>
<linearGradient id="paint1_linear" x1="592.424" y1="111.263" x2="592.424" y2="712.627" gradientUnits="userSpaceOnUse">
<stop stop-color="#67E4FF"/>
<stop offset="1" stop-color="#67E4FF" stop-opacity="0.51"/>
</linearGradient>
<linearGradient id="paint2_linear" x1="464.537" y1="558.464" x2="464.537" y2="739.348" gradientUnits="userSpaceOnUse">
<stop stop-color="#9CEDDE"/>
<stop offset="1" stop-color="#6FCE8F"/>
</linearGradient>
<linearGradient id="paint3_linear" x1="266.933" y1="640.296" x2="266.933" y2="821.18" gradientUnits="userSpaceOnUse">
<stop stop-color="#9CEDDE"/>
<stop offset="1" stop-color="#6FCE8F"/>
</linearGradient>
<linearGradient id="paint4_linear" x1="685.572" y1="659.551" x2="685.572" y2="840.435" gradientUnits="userSpaceOnUse">
<stop stop-color="#FBB2B2" stop-opacity="0.7"/>
<stop offset="1" stop-color="#FBB2B2"/>
</linearGradient>
<linearGradient id="paint5_linear" x1="394.094" y1="561.057" x2="370.356" y2="593.603" gradientUnits="userSpaceOnUse">
<stop offset="0.291667"/>
<stop offset="1" stop-color="#F88101"/>
</linearGradient>
<linearGradient id="paint6_linear" x1="341.24" y1="539.842" x2="342.663" y2="585.509" gradientUnits="userSpaceOnUse">
<stop offset="0.380208" stop-color="#232323"/>
<stop offset="1" stop-color="#F88101"/>
</linearGradient>
<linearGradient id="paint7_linear" x1="270.38" y1="645.382" x2="270.38" y2="770.536" gradientUnits="userSpaceOnUse">
<stop stop-color="#F4FDFF"/>
<stop offset="1" stop-color="#F4FDFF" stop-opacity="0"/>
</linearGradient>
<linearGradient id="paint8_linear" x1="174.742" y1="630.941" x2="174.742" y2="750.078" gradientUnits="userSpaceOnUse">
<stop stop-color="#F4FDFF"/>
<stop offset="1" stop-color="#F4FDFF" stop-opacity="0"/>
</linearGradient>
<linearGradient id="paint9_linear" x1="265.568" y1="630.941" x2="265.568" y2="748.875" gradientUnits="userSpaceOnUse">
<stop stop-color="white"/>
<stop offset="1" stop-color="white" stop-opacity="0"/>
</linearGradient>
<linearGradient id="paint10_linear" x1="180.09" y1="654.45" x2="180.09" y2="772.577" gradientUnits="userSpaceOnUse">
<stop stop-color="white"/>
<stop offset="1" stop-color="white" stop-opacity="0"/>
</linearGradient>
<linearGradient id="paint11_linear" x1="632.478" y1="565.958" x2="625.287" y2="575.604" gradientUnits="userSpaceOnUse">
<stop stop-color="#A8BBFF"/>
<stop offset="1" stop-color="#82A0FF"/>
</linearGradient>
<linearGradient id="paint12_linear" x1="532.625" y1="565.955" x2="658.665" y2="695.005" gradientUnits="userSpaceOnUse">
<stop stop-color="#AADBFF"/>
<stop offset="0.5" stop-color="#7389FF"/>
</linearGradient>
<linearGradient id="paint13_linear" x1="581.952" y1="644.179" x2="577.217" y2="670.666" gradientUnits="userSpaceOnUse">
<stop stop-color="#768EFF"/>
<stop offset="0.75" stop-color="#96DFFF"/>
</linearGradient>
<linearGradient id="paint14_linear" x1="453.7" y1="630.563" x2="398.002" y2="682.899" gradientUnits="userSpaceOnUse">
<stop offset="0.526042" stop-color="#FFA8C3"/>
<stop offset="1" stop-color="#F283AB"/>
</linearGradient>
<linearGradient id="paint15_linear" x1="493.665" y1="619.864" x2="456.497" y2="647.752" gradientUnits="userSpaceOnUse">
<stop stop-color="#F283AB"/>
<stop offset="1" stop-color="#FFA8C3"/>
</linearGradient>
<linearGradient id="paint16_linear" x1="464.184" y1="566.402" x2="427.162" y2="621.954" gradientUnits="userSpaceOnUse">
<stop stop-color="#FF8FB2"/>
<stop offset="1" stop-color="#FFA8C3"/>
</linearGradient>
<linearGradient id="paint17_linear" x1="616.078" y1="782.976" x2="624.595" y2="790.92" gradientUnits="userSpaceOnUse">
<stop stop-color="#00C236"/>
<stop offset="1" stop-color="#A7C200"/>
</linearGradient>
<linearGradient id="paint18_linear" x1="600.324" y1="622.846" x2="607.812" y2="631.761" gradientUnits="userSpaceOnUse">
<stop stop-color="#00C236"/>
<stop offset="1" stop-color="#A7C200"/>
</linearGradient>
<linearGradient id="paint19_linear" x1="576.678" y1="659.403" x2="588.334" y2="659.806" gradientUnits="userSpaceOnUse">
<stop stop-color="#00C236"/>
<stop offset="1" stop-color="#A7C200"/>
</linearGradient>
<linearGradient id="paint20_linear" x1="629.427" y1="758.942" x2="640.959" y2="760.678" gradientUnits="userSpaceOnUse">
<stop stop-color="#00C236"/>
<stop offset="1" stop-color="#A7C200"/>
</linearGradient>
<linearGradient id="paint21_linear" x1="615.971" y1="727.655" x2="626.698" y2="723.116" gradientUnits="userSpaceOnUse">
<stop stop-color="#00C236"/>
<stop offset="1" stop-color="#A7C200"/>
</linearGradient>
<linearGradient id="paint22_linear" x1="589.669" y1="698.43" x2="598.364" y2="690.695" gradientUnits="userSpaceOnUse">
<stop stop-color="#00C236"/>
<stop offset="1" stop-color="#A7C200"/>
</linearGradient>
<linearGradient id="paint23_linear" x1="626.029" y1="693.129" x2="679.577" y2="761.111" gradientUnits="userSpaceOnUse">
<stop stop-color="#B9EB50"/>
<stop offset="1" stop-color="#74BC18"/>
</linearGradient>
<linearGradient id="paint24_linear" x1="707.703" y1="659.306" x2="692.155" y2="675.239" gradientUnits="userSpaceOnUse">
<stop stop-color="#C6F36B"/>
<stop offset="1" stop-color="#7EBC18"/>
</linearGradient>
<linearGradient id="paint25_linear" x1="611.42" y1="622.47" x2="664.255" y2="689.546" gradientUnits="userSpaceOnUse">
<stop stop-color="#CBFF5E"/>
<stop offset="1" stop-color="#74C832"/>
</linearGradient>
<linearGradient id="paint26_linear" x1="611.42" y1="622.47" x2="664.255" y2="689.546" gradientUnits="userSpaceOnUse">
<stop stop-color="#CBFF5E"/>
<stop offset="1" stop-color="#74C832"/>
</linearGradient>
<linearGradient id="paint27_linear" x1="676.314" y1="695.128" x2="655.728" y2="710.888" gradientUnits="userSpaceOnUse">
<stop stop-color="#B6EB49"/>
<stop offset="1" stop-color="#A3DC3F"/>
</linearGradient>
<linearGradient id="paint28_linear" x1="466.547" y1="673.751" x2="442.412" y2="758.368" gradientUnits="userSpaceOnUse">
<stop stop-color="#FFD4A1"/>
<stop offset="1" stop-color="#FFB257"/>
</linearGradient>
<linearGradient id="paint29_linear" x1="533.833" y1="617.703" x2="553.095" y2="798.213" gradientUnits="userSpaceOnUse">
<stop offset="0.0521174" stop-color="#FEF1AB"/>
<stop offset="0.776775" stop-color="#EE9732"/>
</linearGradient>
<linearGradient id="paint30_linear" x1="558.176" y1="745.332" x2="559.321" y2="751.398" gradientUnits="userSpaceOnUse">
<stop stop-color="#689FCF"/>
<stop offset="0.850877" stop-color="#3D719F"/>
</linearGradient>
<linearGradient id="paint31_linear" x1="553.148" y1="717.751" x2="556.187" y2="733.267" gradientUnits="userSpaceOnUse">
<stop stop-color="#A5CAED"/>
<stop offset="1" stop-color="#A5CAED" stop-opacity="0"/>
</linearGradient>
<linearGradient id="paint32_linear" x1="557.402" y1="737.767" x2="556.719" y2="734.15" gradientUnits="userSpaceOnUse">
<stop stop-color="#5083B1"/>
<stop offset="1" stop-color="#5083B1" stop-opacity="0"/>
</linearGradient>
</defs>
</svg>
