<svg width="859" height="1193" viewBox="0 0 859 1193" fill="none" xmlns="http://www.w3.org/2000/svg">
<path d="M466 92H475V294H466V92Z" fill="#46004C"/>
<g filter="url(#filter0_d)">
<path d="M558.713 409.888C551.778 393.222 521.928 350.655 508.431 342.216L499.718 346.049L507.602 355.075C519.974 367.432 545.173 397.995 549.148 407.513C556.53 425.191 549.441 437.976 538.17 446.815C529.153 453.886 510.532 460.147 520.532 467.335C534.467 477.352 529.015 463.742 544.692 450.102C569.712 428.332 564.054 422.725 558.713 409.888Z" fill="#46004D"/>
<path d="M383.067 408.81C390.128 392.179 420.563 352.202 433.298 343.023L444.319 345.143L433.84 355.565C422.565 368.589 393.824 402.671 392.352 412.646C389.321 433.194 402.299 440.42 414.306 448.602C423.911 455.147 439.692 457.757 431.423 466.003C423.154 474.25 420.356 465.492 405.178 452.797C380.016 431.75 376.108 425.2 383.067 408.81Z" fill="#46004D"/>
<path d="M448.131 314.108C450.912 313.753 455.34 314.108 455.34 314.108V319.934H453.676C453.676 319.934 440.367 339.806 442.031 341.895C443.694 343.985 460.885 348.17 460.885 348.17V353.548C450.057 349.697 434.821 348.17 433.158 343.688C432.427 341.718 445.349 314.463 448.131 314.108Z" fill="#46004D"/>
<path d="M494.715 314.266C491.934 313.911 487.506 314.266 487.506 314.266V320.092H489.169C489.169 320.092 502.479 339.964 500.815 342.053C499.151 344.142 481.96 348.328 481.96 348.328V353.706C492.789 349.855 508.025 348.328 509.688 343.846C510.419 341.876 497.496 314.62 494.715 314.266Z" fill="#46004D"/>
<path d="M466.433 346.378V328.899C467.172 327.704 469.316 325.403 471.978 325.761C474.64 326.12 476.415 327.106 476.969 327.554L478.078 346.378C477.339 346.826 474.751 349.515 471.978 349.515C468.599 349.515 466.987 347.722 466.433 346.378Z" fill="#46004D"/>
<path d="M455.341 323.072C453.123 320.831 453.676 293.044 455.34 290.803C457.005 288.562 464.567 285.425 469.76 285.425C480.296 285.425 484.177 288.562 486.95 290.803L486.951 290.803C489.724 293.044 490.278 320.831 486.951 323.072C483.624 325.313 476.969 328.002 469.76 328.002C464.363 328.002 457.559 325.313 455.341 323.072Z" fill="#46004D"/>
<rect x="459.777" y="345.482" width="23.2912" height="9.86002" rx="3" fill="#46004D"/>
</g>
<g filter="url(#filter1_dif)">
<path d="M533.737 459.53C530.505 459.481 526.983 456.531 524.143 455.779L518.257 458.532L510.641 460.456C513.453 463.218 525.485 475.919 534.552 479.745C543.618 483.571 547.59 481.478 548.442 479.954C549.761 479.028 552.925 475.197 555.03 467.282C557.135 459.368 553.275 454.975 551.619 454.478C541.332 451.384 539.687 459.619 533.737 459.53Z" fill="url(#paint0_linear)"/>
<path d="M533.737 459.53C530.505 459.481 526.983 456.531 524.143 455.779L518.257 458.532L510.641 460.456C513.453 463.218 525.485 475.919 534.552 479.745C543.618 483.571 547.59 481.478 548.442 479.954C549.761 479.028 552.925 475.197 555.03 467.282C557.135 459.368 553.275 454.975 551.619 454.478C541.332 451.384 539.687 459.619 533.737 459.53Z" fill="url(#paint1_linear)"/>
<path d="M441.226 492.02C446.786 489.918 450.016 483.456 451.842 481.165C451.842 481.165 454.84 482.501 458.079 483.397C461.079 484.226 464.591 484.064 464.591 484.064C463.995 487.953 461.577 496.123 456.603 504.583C451.629 513.043 448.222 515.6 445.428 515.669C443.814 515.709 436.257 515.758 429.818 510.651C423.379 505.545 421.484 500.147 424.636 493.287C427.752 486.503 435.667 494.122 441.226 492.02Z" fill="url(#paint2_linear)"/>
<path d="M441.226 492.02C446.786 489.918 450.016 483.456 451.842 481.165C451.842 481.165 454.84 482.501 458.079 483.397C461.079 484.226 464.591 484.064 464.591 484.064C463.995 487.953 461.577 496.123 456.603 504.583C451.629 513.043 448.222 515.6 445.428 515.669C443.814 515.709 436.257 515.758 429.818 510.651C423.379 505.545 421.484 500.147 424.636 493.287C427.752 486.503 435.667 494.122 441.226 492.02Z" fill="url(#paint3_linear)"/>
<path d="M481.037 398.189C481.256 391.798 480.379 372.746 480.444 364.133C480.52 354.107 482.04 344.921 483.483 341.443C484.926 337.966 490.128 330.086 496.638 330.532C503.149 330.978 515.796 335.37 521.514 339.101C527.233 342.832 538.438 348.328 542.389 353.26C545.55 357.205 548.198 362.839 549.127 365.162L541.502 363.351C543.981 365.329 549.358 370.923 551.03 377.478C552.702 384.033 554.108 395.321 554.603 400.146C554.215 400.035 552.538 399.401 548.93 397.757C546.165 396.498 544.243 395.785 543.21 395.453C544.053 396.02 545.287 397.766 547.813 401.138C551.346 405.855 552.367 409.281 553.481 415.391C554.398 420.417 553.431 427.494 553.988 430.154L545.2 425.636C545.091 428.041 544.56 431.475 542.438 434.814C540.317 438.154 536.221 442.081 534.717 443.769L481.037 398.189Z" fill="url(#paint4_linear)"/>
<path d="M390.791 364.253C387.156 367.997 384.347 375.425 383.256 381.308C383.207 382.805 382.648 391.717 381.934 394.301C381.041 397.53 373.701 402.181 367.181 408.502C361.129 414.37 353.098 429.347 351.065 436.62C349.257 443.085 348.509 460.556 354.6 468.39C358.582 473.512 363.577 479.817 370.401 477.799C377.224 475.78 379.712 466.69 383.232 462.312C386.753 457.935 392.312 451.537 401.641 446.859C407.352 443.995 413.535 442.12 417.334 442.215C420.268 442.288 426.909 441.222 429.639 440.969C429.026 444.362 428.13 452.757 429.454 459.185C430.777 465.613 432.31 471.882 437.047 476.781C441.783 481.681 441.932 482.178 450.925 486.188C459.918 490.199 470.326 492.694 495.214 480.497L495.775 480.221C510.65 472.933 517.387 469.631 527 458.861C532.844 452.314 533.536 448.397 535.146 443.849C536.757 439.295 537.791 429.924 530.662 418.861C525.404 410.701 515.763 404.62 505.428 399.842C495.092 395.064 479.796 389.065 479.796 389.065C479.17 385.566 478.868 384.72 475.974 380.759C470.913 373.832 466.72 370.896 464.064 369.458C461.263 367.943 458.105 365.662 454.49 365.99C454.185 364.968 454.769 363.41 452.656 356.326C450.543 349.242 445.093 344.659 442.793 344.419C440.493 344.179 436.143 347.022 431.047 352.342C427.367 356.184 423.042 361.382 421.22 368.963C421.22 368.963 418.601 368.906 416.775 368.996C414.949 369.086 410.634 370.813 410.634 370.813C410.455 369.383 410.728 365.619 409.206 362.511C407.685 359.403 404.386 355.061 402.37 354.526C400.353 353.992 394.427 360.509 390.791 364.253Z" fill="url(#paint5_linear)"/>
<path d="M390.595 363.769C388.166 368.386 384.344 375.449 383.253 381.332C383.204 382.829 382.001 388.796 381.286 391.379C380.393 394.609 373.25 401.776 367.178 408.526C357.636 419.133 353.998 426.14 351.061 436.645C347.609 448.995 350.241 461.24 354.975 469.957C359.737 478.726 363.574 479.844 370.397 477.825C377.221 475.806 382.159 465.249 385.68 460.872L385.754 460.779C389.26 456.421 393.449 451.212 402.712 446.566C408.423 443.702 413.532 442.146 417.332 442.24C420.265 442.314 426.907 441.247 429.637 440.994C436.088 440.397 446.365 436.488 453.042 432.786C458.777 429.607 460.328 429.028 468.272 421.608C486.274 404.792 479.795 389.089 479.795 389.089C479.169 385.59 478.866 384.744 475.973 380.783C470.912 373.856 466.719 370.919 464.062 369.482C461.262 367.966 457.96 366.098 455.452 365.728L452.654 356.349C450.541 349.265 445.091 344.681 442.791 344.442C440.491 344.202 436.141 347.045 431.045 352.365C427.364 356.207 423.039 361.405 421.218 368.986C421.218 368.986 418.598 368.929 416.772 369.019C414.946 369.109 410.631 370.836 410.631 370.836C410.452 369.406 410.725 365.642 409.204 362.534C407.683 359.426 404.384 355.084 402.367 354.549C400.35 354.015 392.88 359.427 390.595 363.769Z" fill="url(#paint6_linear)"/>
<path d="M457.088 441.906C446.949 446.502 431.605 448.592 431.605 448.592C430.845 452.266 430.968 458.903 433.414 463.369C448.821 473.76 470.197 468.425 478.865 465.119C487.533 461.812 506.14 450.746 505.024 429.575C504.082 425.262 496.894 419.747 493.351 417.829C491.26 423.267 485.832 424.987 479.821 429.731C473.809 434.476 463.957 438.792 457.088 441.906Z" fill="#747372" stroke="#FFFCFC" stroke-width="4" stroke-linejoin="round"/>
<path d="M481.731 436.1C482.275 432.82 480.555 427.184 480.555 427.184L490.917 413.375C490.917 413.375 495.358 418.403 496.092 425.091C497.01 433.452 495.974 437.783 493.383 441.547C490.182 446.199 484.197 450.917 480.632 448.404C477.49 446.189 481.226 439.032 481.731 436.1Z" fill="url(#paint7_linear)"/>
<path d="M481.731 436.1C482.275 432.82 480.555 427.184 480.555 427.184L490.917 413.375C490.917 413.375 495.358 418.403 496.092 425.091C497.01 433.452 495.974 437.783 493.383 441.547C490.182 446.199 484.197 450.917 480.632 448.404C477.49 446.189 481.226 439.032 481.731 436.1Z" fill="url(#paint8_linear)"/>
<path d="M455.054 448.819C451.916 447.917 446.999 446.204 445.35 442.421L430.072 447.618C432.952 453.138 435.471 456.007 440.157 458.577C443.905 460.634 447.219 461.154 449.573 461.567C451.927 461.981 456.362 460.836 457.72 460.434C459.079 460.032 464.686 457.99 464.48 454.14C464.222 449.328 458.607 449.84 455.054 448.819Z" fill="url(#paint9_linear)"/>
<path d="M455.054 448.819C451.916 447.917 446.999 446.204 445.35 442.421L430.072 447.618C432.952 453.138 435.471 456.007 440.157 458.577C443.905 460.634 447.219 461.154 449.573 461.567C451.927 461.981 456.362 460.836 457.72 460.434C459.079 460.032 464.686 457.99 464.48 454.14C464.222 449.328 458.607 449.84 455.054 448.819Z" fill="url(#paint10_linear)"/>
<ellipse rx="3.2009" ry="4.81071" transform="matrix(0.988512 -0.152485 0.154167 0.987839 397.13 391.02)" fill="#040404"/>
<ellipse rx="3.20113" ry="4.81101" transform="matrix(0.970986 -0.239433 0.241399 0.970354 432.379 383.087)" fill="black"/>
</g>
<path d="M474.524 384.759C474.137 369.761 475.298 335.376 474.524 329.687H468.166V368.127V404.163V431.821C468.166 439.9 456.104 453.414 470.466 453.414C484.827 453.414 473.772 446.302 474.524 431.821C475.276 417.34 474.921 400.161 474.524 384.759Z" fill="#46004D"/>
<defs>
<filter id="filter0_d" x="376.005" y="285.425" width="191.311" height="193.366" filterUnits="userSpaceOnUse" color-interpolation-filters="sRGB">
<feFlood flood-opacity="0" result="BackgroundImageFix"/>
<feColorMatrix in="SourceAlpha" type="matrix" values="0 0 0 0 0 0 0 0 0 0 0 0 0 0 0 0 0 0 127 0" result="hardAlpha"/>
<feOffset dy="4"/>
<feGaussianBlur stdDeviation="2"/>
<feColorMatrix type="matrix" values="0 0 0 0 0 0 0 0 0 0 0 0 0 0 0 0 0 0 0.25 0"/>
<feBlend mode="normal" in2="BackgroundImageFix" result="effect1_dropShadow"/>
<feBlend mode="normal" in="SourceGraphic" in2="effect1_dropShadow" result="shape"/>
</filter>
<filter id="filter1_dif" x="345.485" y="326.514" width="214.158" height="193.162" filterUnits="userSpaceOnUse" color-interpolation-filters="sRGB">
<feFlood flood-opacity="0" result="BackgroundImageFix"/>
<feColorMatrix in="SourceAlpha" type="matrix" values="0 0 0 0 0 0 0 0 0 0 0 0 0 0 0 0 0 0 127 0" result="hardAlpha"/>
<feOffset/>
<feGaussianBlur stdDeviation="2"/>
<feComposite in2="hardAlpha" operator="out"/>
<feColorMatrix type="matrix" values="0 0 0 0 0 0 0 0 0 0 0 0 0 0 0 0 0 0 0.25 0"/>
<feBlend mode="normal" in2="BackgroundImageFix" result="effect1_dropShadow"/>
<feBlend mode="normal" in="SourceGraphic" in2="effect1_dropShadow" result="shape"/>
<feColorMatrix in="SourceAlpha" type="matrix" values="0 0 0 0 0 0 0 0 0 0 0 0 0 0 0 0 0 0 127 0" result="hardAlpha"/>
<feOffset/>
<feGaussianBlur stdDeviation="2"/>
<feComposite in2="hardAlpha" operator="arithmetic" k2="-1" k3="1"/>
<feColorMatrix type="matrix" values="0 0 0 0 0 0 0 0 0 0 0 0 0 0 0 0 0 0 0.1 0"/>
<feBlend mode="normal" in2="shape" result="effect2_innerShadow"/>
<feGaussianBlur stdDeviation="0.125" result="effect3_foregroundBlur"/>
</filter>
<linearGradient id="paint0_linear" x1="527.404" y1="462.944" x2="550.857" y2="469.365" gradientUnits="userSpaceOnUse">
<stop stop-color="#6C655F"/>
<stop offset="1" stop-color="#8E8780"/>
</linearGradient>
<linearGradient id="paint1_linear" x1="523.551" y1="479.44" x2="524.985" y2="467.087" gradientUnits="userSpaceOnUse">
<stop stop-color="#A29993"/>
<stop offset="1" stop-color="#D8CAC0"/>
</linearGradient>
<linearGradient id="paint2_linear" x1="451.966" y1="488.999" x2="432.298" y2="510.073" gradientUnits="userSpaceOnUse">
<stop stop-color="#6C655F"/>
<stop offset="1" stop-color="#8E8780"/>
</linearGradient>
<linearGradient id="paint3_linear" x1="461.587" y1="501.527" x2="451.736" y2="491.34" gradientUnits="userSpaceOnUse">
<stop stop-color="#A29993"/>
<stop offset="1" stop-color="#D8CAC0"/>
</linearGradient>
<linearGradient id="paint4_linear" x1="536.233" y1="475.698" x2="504.913" y2="354.037" gradientUnits="userSpaceOnUse">
<stop offset="0.647047" stop-color="#A29993"/>
<stop offset="0.959926" stop-color="#D8CAC0"/>
</linearGradient>
<linearGradient id="paint5_linear" x1="491.322" y1="471.471" x2="464.803" y2="411.509" gradientUnits="userSpaceOnUse">
<stop stop-color="#A29993"/>
<stop offset="1" stop-color="#D8CAC0"/>
</linearGradient>
<linearGradient id="paint6_linear" x1="444.812" y1="423.951" x2="421.496" y2="379.045" gradientUnits="userSpaceOnUse">
<stop stop-color="#A29993"/>
<stop offset="0.876594" stop-color="#D8CAC0"/>
</linearGradient>
<linearGradient id="paint7_linear" x1="488.173" y1="447.163" x2="485.579" y2="420.891" gradientUnits="userSpaceOnUse">
<stop stop-color="#A0A0A0"/>
<stop offset="1" stop-color="#928B85"/>
</linearGradient>
<linearGradient id="paint8_linear" x1="498.132" y1="436.901" x2="490.335" y2="429.166" gradientUnits="userSpaceOnUse">
<stop stop-color="#A29993"/>
<stop offset="1" stop-color="#D8CAC0"/>
</linearGradient>
<linearGradient id="paint9_linear" x1="459.629" y1="454.881" x2="442.507" y2="444.736" gradientUnits="userSpaceOnUse">
<stop stop-color="#A0A0A0"/>
<stop offset="1" stop-color="#928B85"/>
</linearGradient>
<linearGradient id="paint10_linear" x1="454.829" y1="459.95" x2="453.591" y2="451.426" gradientUnits="userSpaceOnUse">
<stop stop-color="#A29993"/>
<stop offset="1" stop-color="#D8CAC0"/>
</linearGradient>
</defs>
</svg>
