<svg width="61" height="61" viewBox="0 0 61 61" fill="none" xmlns="http://www.w3.org/2000/svg">
<path fill-rule="evenodd" clip-rule="evenodd" d="M35.5947 58.7656V56.5293L36.1722 56.3805C38.1698 55.8653 38.9203 55.6347 40.0102 55.202C41.5439 54.5929 43.0704 53.8313 44.3289 53.048L45.3033 52.4417L46.9707 54.1049L48.6381 55.7686L52.1986 52.2377C54.1569 50.2954 55.7889 48.6908 55.8258 48.6679C55.8627 48.6448 55.1461 47.8816 54.2346 46.9679C53.323 46.0538 52.5768 45.2623 52.5768 45.2086C52.5768 45.1549 52.7987 44.7649 53.0699 44.3409C54.316 42.3935 55.7774 38.8768 56.3323 36.4899L56.572 35.4599H61V25.2702H58.8222C57.197 25.2702 56.6314 25.2271 56.5935 25.1005C56.5658 25.0047 56.4383 24.4722 56.3103 23.9119C55.7716 21.5514 54.3295 18.0875 53.0584 16.0994L52.5542 15.3105L54.0591 13.8036L55.5646 12.2938L51.9657 8.69677L48.3668 5.10207L46.8854 6.5783L45.4044 8.05212L44.2695 7.37008C41.5971 5.76444 39.4629 4.89598 36.1698 4.07446L35.5923 3.93069V0H25.4129L25.3751 1.92292L25.3379 3.84535L23.8428 4.21778C21.1109 4.89934 18.2939 6.08701 16.1366 7.46161L15.2842 8.00418L13.9589 6.68661L12.6331 5.36855L9.03471 8.96566L5.43601 12.5603L6.74324 13.8731L8.05078 15.1854L7.36941 16.3238C5.83556 18.8822 4.76288 21.5197 4.14007 24.2853L3.91803 25.2702H0V35.4529L1.99897 35.4907L3.99794 35.5279L4.11445 36.0714C4.68968 38.7518 6.12745 42.2327 7.59114 44.4952L8.11849 45.3099L6.64046 46.8062L5.16212 48.3022L8.76173 51.8967L12.3604 55.4938L13.8238 54.0353C14.6284 53.2332 15.3311 52.5765 15.3842 52.5765C15.4373 52.5765 15.8289 52.7989 16.2534 53.0706C18.2765 54.3647 22.3208 55.9943 24.5067 56.3979L25.4038 56.5632V61H35.5947V58.7656ZM24.9389 52.2322C22.2183 51.6127 19.6637 50.5037 17.2487 48.8961C15.4964 47.7288 12.569 44.8033 11.4229 43.0739C6.22231 35.2257 6.22383 25.6153 11.4262 17.7923C12.5828 16.0529 15.5093 13.1264 17.2487 11.9694C24.1636 7.37057 32.6577 6.80595 39.9412 10.461C42.3194 11.6545 44.049 12.9184 46.0654 14.9348C49.6834 18.5544 51.7208 22.6264 52.3764 27.5401C53.8023 38.2519 47.3407 48.3166 36.8854 51.6676C36.7189 51.721 36.5537 51.7725 36.3897 51.8219C34.2819 55.9099 32.7343 56.9795 30.5967 57.0646L30.5967 57.0673C30.5833 57.067 30.5699 57.0664 30.5566 57.0661C30.5434 57.0664 30.5302 57.067 30.517 57.0673L30.5169 57.0646C28.4528 56.9825 26.9385 55.9821 24.9389 52.2322Z" fill="white"/>
<path d="M40.4282 16.3631C40.8737 16.3555 41.2869 16.4712 41.6353 16.7615C43.6621 18.4505 41.4663 23.6865 41.4663 23.6865L35.3858 19.295C35.3858 19.295 38.2817 16.3992 40.4282 16.3631ZM40.4881 17.4777C39.3515 17.4969 37.818 19.0303 37.818 19.0303L41.0379 21.3557C41.0379 21.3557 42.2005 18.5831 41.1273 17.6887C40.9428 17.535 40.724 17.4737 40.4881 17.4777Z" fill="white"/>
<path d="M20.244 16.2618C22.3906 16.298 25.2863 19.1938 25.2863 19.1938L19.2058 23.5852C19.2058 23.5852 17.0101 18.3492 19.0371 16.6602C19.3854 16.3699 19.7987 16.2543 20.244 16.2618ZM20.4679 17.5453C20.2321 17.5413 20.0131 17.6025 19.8286 17.7563C18.7553 18.6506 19.9183 21.4232 19.9183 21.4232L23.1381 19.0978C23.1381 19.0978 21.6046 17.5644 20.4679 17.5453Z" fill="white"/>
<path d="M30.6939 15.4941C30.7047 15.4945 30.7104 15.4955 30.7266 15.4958C30.7907 15.4957 30.776 15.4961 30.8052 15.4949C33.5971 15.828 46.7781 18.2762 41.4405 34.5513C35.4856 52.7083 33.8615 55.8751 30.5051 55.9806L30.2889 15.5069C30.306 15.503 30.323 15.4986 30.3386 15.4966C30.4161 15.5135 30.503 15.5119 30.598 15.4973C30.5769 15.5005 30.6086 15.4956 30.6132 15.4949C30.6271 15.4951 30.656 15.4966 30.6451 15.4948H30.6744C30.6811 15.4948 30.6874 15.4943 30.6939 15.4941ZM38.8205 26.0343C38.5214 26.0343 38.2344 26.3279 38.0229 26.8505C37.8113 27.3732 37.6925 28.082 37.6925 28.8211C37.6925 29.5603 37.8113 30.2691 38.0229 30.7919C38.2344 31.3143 38.5214 31.608 38.8205 31.608C39.1197 31.608 39.4066 31.3143 39.6181 30.7919C39.8297 30.2691 39.9485 29.5603 39.9485 28.8211C39.9485 28.082 39.8297 27.3732 39.6181 26.8505C39.4066 26.3279 39.1197 26.0343 38.8205 26.0343Z" fill="white"/>
<path d="M30.6916 15.494C30.7029 15.4944 30.7093 15.4954 30.7268 15.4959C30.7775 15.4957 30.7769 15.4955 30.7891 15.4951L30.5729 55.9806C27.2165 55.8751 25.5924 52.7083 19.6376 34.5513C14.3257 18.3549 27.3519 15.8524 30.2296 15.5003C30.2488 15.5251 30.3004 15.5016 30.3394 15.4968C30.4166 15.5135 30.5033 15.5118 30.5983 15.4973C30.5771 15.5005 30.6088 15.4956 30.6135 15.4949C30.6273 15.4951 30.6562 15.4966 30.6453 15.4948H30.6747C30.6805 15.4948 30.6858 15.4941 30.6916 15.494ZM22.2008 26.0343C21.9016 26.0343 21.6146 26.3279 21.4032 26.8505C21.1915 27.3732 21.0729 28.082 21.0729 28.8211C21.0729 29.5603 21.1915 30.2691 21.4032 30.7919C21.6146 31.3143 21.9016 31.6081 22.2008 31.6081C22.5 31.6081 22.787 31.3143 22.9984 30.7919C23.21 30.2691 23.3287 29.5603 23.3287 28.8211C23.3287 28.082 23.21 27.3732 22.9984 26.8505C22.787 26.3279 22.5 26.0343 22.2008 26.0343Z" fill="white"/>
<path fill-rule="evenodd" clip-rule="evenodd" d="M48.0854 41.9756C47.5029 41.2491 46.7454 40.3735 45.9329 39.589C44.5177 38.2226 42.5779 36.9456 41.7849 36.478C41.6833 37.3524 41.1017 40.0526 39.5889 43.859C38.3022 47.0966 37.1891 49.622 36.6474 50.8051C41.4035 49.2612 45.4319 46.1026 48.0854 41.9756ZM24.7144 51.1915C24.2755 50.2558 23.0451 47.5102 21.5939 43.859C20.0811 40.0526 19.4995 37.3524 19.3979 36.478C18.6049 36.9456 16.6651 38.2226 15.2499 39.589C14.1053 40.6943 13.0695 41.9805 12.4787 42.7759C15.386 46.88 19.6981 49.9187 24.7144 51.1915Z" fill="white"/>
</svg>
