<svg width="119" height="119" viewBox="0 0 119 119" fill="none" xmlns="http://www.w3.org/2000/svg">
<g clip-path="url(#clip0)">
<path fill-rule="evenodd" clip-rule="evenodd" d="M49.1484 114.225V109.899L48.0312 109.611C44.167 108.615 42.7151 108.168 40.6069 107.331C37.6401 106.153 34.6872 104.68 32.2526 103.165L30.3677 101.992L27.1423 105.209L23.9168 108.427L17.0293 101.597C13.2411 97.84 10.0842 94.736 10.0128 94.6917C9.94145 94.6469 11.3275 93.1707 13.0909 91.4031C14.8543 89.6348 16.2978 88.1038 16.2978 87.9999C16.2978 87.8961 15.8685 87.1415 15.3438 86.3214C12.9333 82.5542 10.1065 75.7515 9.0329 71.1342L8.56934 69.1418H0.00366211V49.4305H4.21651C7.36037 49.4305 8.45435 49.3471 8.52763 49.1023C8.58138 48.9169 8.828 47.8868 9.07556 46.8029C10.1176 42.2367 12.9073 35.5362 15.366 31.6903L16.3414 30.1642L13.4302 27.2493L10.5181 24.3287L17.4799 17.3704L24.4416 10.4168L27.3073 13.2724L30.1721 16.1234L32.3675 14.8041C37.5372 11.6981 41.6656 10.0181 48.0359 8.42893L49.153 8.1508V0.54718H68.8443L68.9174 4.26692L68.9894 7.98572L71.8816 8.70617C77.1662 10.0246 82.6155 12.322 86.7885 14.9811L88.4376 16.0307L91.0011 13.4819L93.5659 10.9322L100.527 17.8906L107.488 24.8442L104.959 27.3837L102.43 29.9223L103.748 32.1243C106.715 37.0734 108.79 42.1755 109.995 47.5252L110.425 49.4305H118.004V69.1282L114.137 69.2013L110.27 69.2733L110.045 70.3247C108.932 75.5096 106.151 82.2433 103.319 86.6199L102.299 88.1958L105.158 91.0903L108.018 93.9843L101.055 100.937L94.0933 107.896L91.2625 105.075C89.7061 103.523 88.3467 102.253 88.2441 102.253C88.1414 102.253 87.3838 102.683 86.5626 103.208C82.6491 105.712 74.8257 108.864 70.5972 109.645L68.862 109.964V118.547H49.1484V114.225ZM69.7611 101.586C75.0239 100.388 79.9658 98.2429 84.6374 95.133C88.0269 92.8751 93.6898 87.2158 95.907 83.8705C105.967 68.6886 105.964 50.0981 95.9005 34.9651C93.6632 31.6004 88.0022 25.9392 84.6374 23.701C71.2609 14.805 54.8298 13.7128 40.7404 20.7833C36.14 23.0919 32.794 25.5368 28.8936 29.4374C21.8948 36.4392 17.9536 44.3163 16.6853 53.8215C13.9271 74.5426 26.4266 94.012 46.6517 100.494C46.9737 100.598 47.2932 100.697 47.6105 100.793C51.6878 108.701 54.6816 110.77 58.8165 110.934L58.8166 110.94C58.8425 110.939 58.8684 110.938 58.8942 110.937C58.9198 110.938 58.9453 110.939 58.9709 110.94L58.9709 110.934C62.9637 110.776 65.8931 108.84 69.7611 101.586Z" fill="white"/>
<path d="M39.7984 32.2004C38.9365 32.1858 38.1372 32.4095 37.4633 32.9711C33.5426 36.2384 37.7901 46.3671 37.7901 46.3671L49.5524 37.8721C49.5524 37.8721 43.9506 32.2703 39.7984 32.2004ZM39.6824 34.3566C41.8811 34.3936 44.8475 37.3599 44.8475 37.3599L38.6189 41.8583C38.6189 41.8583 36.3699 36.4949 38.446 34.7648C38.8028 34.4673 39.226 34.3489 39.6824 34.3566Z" fill="white"/>
<path d="M78.843 32.0044C74.6906 32.0744 69.0892 37.6761 69.0892 37.6761L80.8514 46.171C80.8514 46.171 85.0988 36.0425 81.1777 32.7752C80.5039 32.2136 79.7044 31.9899 78.843 32.0044ZM78.41 34.4872C78.866 34.4795 79.2897 34.598 79.6466 34.8954C81.7228 36.6255 79.4731 41.9889 79.4731 41.9889L73.2445 37.4906C73.2445 37.4906 76.2111 34.5243 78.41 34.4872Z" fill="white"/>
<path d="M58.6284 30.5193C58.6076 30.5201 58.5966 30.522 58.5652 30.5228C58.4412 30.5225 58.4696 30.5233 58.413 30.5209C53.0125 31.1652 27.5147 35.9012 37.84 67.3841C49.3593 102.507 52.501 108.633 58.9936 108.838L59.4119 30.5441C59.3789 30.5365 59.3458 30.5281 59.3157 30.5243C59.1659 30.5569 58.9978 30.5537 58.8139 30.5255C58.8547 30.5317 58.7934 30.5223 58.7844 30.5209C58.7577 30.5213 58.7017 30.5241 58.7228 30.5207H58.6661C58.6531 30.5207 58.641 30.5197 58.6284 30.5193ZM42.9081 50.9086C43.4868 50.9086 44.0418 51.4766 44.451 52.4876C44.8603 53.4986 45.0901 54.8698 45.0901 56.2996C45.0901 57.7294 44.8603 59.1006 44.451 60.1118C44.0418 61.1225 43.4868 61.6906 42.9081 61.6906C42.3293 61.6906 41.7743 61.1225 41.3652 60.1118C40.9559 59.1006 40.726 57.7294 40.726 56.2996C40.726 54.8698 40.9559 53.4986 41.3652 52.4876C41.7743 51.4766 42.3293 50.9086 42.9081 50.9086Z" fill="white"/>
<path d="M58.6334 30.5192C58.6116 30.5201 58.5991 30.5219 58.5652 30.5228C58.4672 30.5225 58.4683 30.5221 58.4448 30.5213L58.863 108.838C65.3557 108.633 68.4974 102.507 80.0166 67.3841C90.292 36.0533 65.0937 31.2125 59.5271 30.5314C59.4899 30.5794 59.3902 30.5339 59.3147 30.5245C59.1654 30.5569 58.9976 30.5537 58.8139 30.5255C58.8548 30.5318 58.7935 30.5223 58.7845 30.5209C58.7578 30.5213 58.7018 30.5242 58.7228 30.5207H58.6661C58.6547 30.5207 58.6445 30.5195 58.6334 30.5192ZM75.0582 50.9086C75.637 50.9086 76.1922 51.4766 76.6011 52.4876C77.0105 53.4986 77.24 54.8698 77.24 56.2996C77.24 57.7294 77.0105 59.1006 76.6011 60.1118C76.1922 61.1225 75.637 61.6906 75.0582 61.6906C74.4794 61.6906 73.9242 61.1225 73.5154 60.1118C73.1059 59.1006 72.8764 57.7294 72.8764 56.2996C72.8764 54.8698 73.1059 53.4986 73.5154 52.4876C73.9242 51.4766 74.4794 50.9086 75.0582 50.9086Z" fill="white"/>
<path fill-rule="evenodd" clip-rule="evenodd" d="M24.9858 81.746C26.1127 80.3406 27.5781 78.6467 29.1497 77.1292C31.8873 74.486 35.6397 72.0157 37.1737 71.1112C37.3704 72.8027 38.4953 78.026 41.4217 85.3892C43.9107 91.6521 46.064 96.5373 47.1118 98.8259C37.9115 95.8393 30.119 89.7292 24.9858 81.746ZM70.1954 99.5734C71.0444 97.7633 73.4245 92.4521 76.2317 85.3892C79.1581 78.026 80.2832 72.8027 80.4797 71.1112C82.0137 72.0157 85.7661 74.486 88.5037 77.1292C90.718 79.2674 92.7216 81.7554 93.8644 83.2941C88.2406 91.2332 79.8991 97.1113 70.1954 99.5734Z" fill="white"/>
</g>
<defs>
<clipPath id="clip0">
<rect width="118" height="118" fill="white" transform="translate(0.00366211 0.54718)"/>
</clipPath>
</defs>
</svg>
