<?xml version="1.0" standalone="no"?>
<!DOCTYPE svg PUBLIC "-//W3C//DTD SVG 20010904//EN"
 "http://www.w3.org/TR/2001/REC-SVG-20010904/DTD/svg10.dtd">
<svg version="1.0" xmlns="http://www.w3.org/2000/svg"
 width="700.000000pt" height="700.000000pt" viewBox="0 0 700.000000 700.000000"
 preserveAspectRatio="xMidYMid meet">
<metadata>
Created by potrace 1.14, written by Peter Selinger 2001-2017
</metadata>
<g transform="translate(0.000000,700.000000) scale(0.100000,-0.100000)"
fill="#000000" stroke="none">
<path d="M2918 6988 c-2 -7 -3 -120 -3 -250 l1 -237 -25 -6 c-14 -4 -37 -9
-51 -11 -14 -3 -58 -14 -98 -25 -40 -11 -81 -22 -90 -24 -36 -7 -251 -84 -337
-119 -123 -51 -336 -163 -438 -229 l-84 -55 -174 174 c-96 96 -177 174 -181
174 -9 0 -818 -809 -818 -818 0 -4 78 -86 174 -181 l175 -174 -40 -59 c-78
-114 -189 -327 -254 -487 -64 -158 -98 -264 -150 -466 -1 -5 -6 -29 -10 -53
-4 -23 -13 -46 -19 -50 -6 -4 -119 -7 -251 -7 l-240 -1 0 -584 0 -584 244 -1
c206 0 245 -2 252 -15 4 -8 20 -67 35 -130 68 -292 207 -624 368 -877 l63
-101 -173 -173 c-96 -96 -174 -177 -174 -181 0 -9 809 -818 818 -818 4 0 85
78 180 173 l172 172 28 -16 c15 -9 68 -41 117 -71 213 -128 441 -228 695 -306
56 -17 96 -27 122 -32 4 -1 39 -10 77 -20 39 -10 72 -15 75 -12 9 8 9 0 10
-263 l2 -240 584 -3 585 -2 -1 250 0 251 25 5 c15 3 32 8 40 10 8 3 30 7 49
10 55 9 258 71 377 115 159 59 487 222 536 265 8 8 19 14 23 14 4 0 22 11 40
25 l32 24 178 -178 178 -178 412 411 413 411 -180 181 c-98 100 -175 184 -170
187 12 7 193 310 193 322 0 1 19 43 41 92 91 193 186 479 215 643 11 60 -7 56
262 56 l247 0 3 579 c1 341 -2 581 -7 584 -5 3 -117 6 -249 5 l-241 0 -16 70
c-85 360 -217 682 -389 953 l-63 101 177 177 177 177 -409 409 c-225 225 -412
409 -416 409 -4 0 -86 -79 -182 -175 -150 -151 -176 -173 -190 -161 -56 48
-330 196 -485 263 -180 78 -464 166 -595 186 l-25 4 -1 249 0 249 -581 3
c-460 2 -582 0 -585 -10z m862 -994 c30 -3 100 -14 155 -24 103 -20 110 -21
185 -39 25 -7 54 -14 64 -16 36 -8 150 -48 226 -77 324 -128 606 -313 855
-563 248 -247 411 -486 544 -796 72 -168 140 -404 166 -569 3 -19 7 -48 10
-65 13 -83 20 -196 19 -350 0 -209 -10 -316 -46 -490 -127 -621 -475 -1162
-988 -1536 -213 -155 -469 -285 -710 -358 -58 -18 -109 -34 -115 -36 -5 -2
-32 -45 -59 -97 -151 -287 -284 -430 -456 -489 -192 -65 -391 17 -555 231 -50
65 -139 211 -178 293 -16 32 -34 60 -40 62 -306 91 -509 183 -732 329 -589
387 -979 987 -1100 1691 -37 216 -41 530 -9 755 13 90 46 253 59 290 8 22 15
44 15 48 4 48 78 246 142 381 85 181 208 376 336 531 72 88 290 299 382 371
389 303 847 485 1315 525 44 4 82 8 84 10 6 5 364 -4 431 -12z"/>
<path d="M3448 5225 c-2 -2 -31 -6 -66 -9 -184 -19 -435 -109 -648 -232 l-31
-18 -54 36 c-210 139 -386 155 -475 44 -49 -61 -65 -120 -66 -236 0 -58 2
-118 5 -135 13 -81 21 -118 49 -215 26 -91 28 -109 18 -140 -23 -71 -48 -167
-61 -235 -15 -76 -18 -318 -6 -429 20 -190 99 -497 223 -871 71 -214 217 -635
248 -715 13 -33 30 -81 121 -340 41 -118 43 -124 115 -310 124 -318 261 -577
366 -686 115 -120 251 -175 374 -149 268 56 455 348 739 1155 34 96 67 186 72
200 6 14 19 50 29 80 10 30 41 120 70 200 28 80 67 190 87 245 43 124 184 544
188 565 2 8 13 47 25 85 11 39 32 115 46 170 63 250 78 354 78 565 1 202 -11
282 -63 436 -21 60 -25 87 -19 105 16 42 56 201 68 267 16 89 13 237 -5 298
-63 211 -253 232 -526 58 l-66 -42 -49 31 c-108 68 -344 161 -474 188 -124 25
-300 45 -312 34z m-1007 -263 c24 -12 65 -37 91 -55 l48 -34 -63 -59 c-69 -65
-131 -134 -162 -178 -11 -16 -33 -43 -49 -59 l-29 -29 -14 26 c-26 50 -54 188
-52 255 4 151 91 201 230 133z m2262 0 c37 -33 50 -74 50 -152 0 -74 -37 -240
-53 -240 -4 0 -16 12 -26 28 -35 53 -118 148 -190 217 l-74 70 58 37 c102 65
191 80 235 40z m-177 -1003 c30 -58 45 -124 51 -222 11 -175 -40 -335 -113
-353 -51 -13 -111 79 -130 201 -27 180 23 396 100 425 29 11 72 -13 92 -51z
m-1923 19 c47 -64 69 -156 68 -279 0 -99 -5 -134 -27 -202 -19 -56 -68 -117
-94 -117 -35 0 -75 46 -100 117 -21 58 -25 86 -25 193 0 142 13 208 56 274 25
40 33 46 63 46 28 0 40 -7 59 -32z"/>
<path d="M2095 2729 c-119 -81 -223 -160 -299 -229 -96 -86 -306 -322 -306
-343 0 -30 183 -253 310 -377 123 -121 143 -137 259 -224 205 -152 442 -276
668 -350 45 -14 84 -26 87 -26 2 0 -8 33 -24 73 -16 39 -56 149 -89 242 -33
94 -110 310 -171 480 -62 171 -116 321 -120 335 -5 14 -26 75 -48 135 -22 61
-60 166 -84 234 -24 69 -48 126 -53 128 -6 1 -64 -34 -130 -78z"/>
<path d="M4761 2788 c-5 -13 -23 -61 -39 -108 -17 -47 -50 -141 -75 -210 -47
-130 -312 -869 -399 -1115 -61 -171 -62 -175 -52 -175 15 0 193 65 274 99 84
36 277 137 290 152 3 3 12 8 20 11 22 9 198 135 261 187 138 114 332 323 441
476 l36 51 -45 54 c-145 176 -220 253 -358 364 -96 78 -259 192 -313 220 -31
16 -32 16 -41 -6z"/>
</g>
</svg>
