<svg width="2000" height="2000" viewBox="0 0 2000 2000" fill="none" xmlns="http://www.w3.org/2000/svg">
<path fill-rule="evenodd" clip-rule="evenodd" d="M1723.63 1487.92C1789.23 1390.92 1834.51 1281.64 1856.76 1166.67H2000V833.333H1856.76C1834.51 718.362 1789.23 609.082 1723.63 512.075L1824.96 410.742L1589.25 175.039L1487.92 276.373C1390.92 210.774 1281.64 165.487 1166.67 143.239V0H833.333V143.239C718.362 165.489 609.084 210.776 512.078 276.375L410.745 175.042L175.039 410.744L276.373 512.077C210.775 609.083 165.488 718.362 143.239 833.333H0V1166.67H143.239C165.488 1281.64 210.776 1390.92 276.375 1487.92L175.042 1589.25L410.744 1824.96L512.077 1723.63C609.083 1789.23 718.362 1834.51 833.333 1856.76V2000H1166.67V1856.76C1281.64 1834.51 1390.92 1789.23 1487.92 1723.63L1589.25 1824.96L1824.96 1589.25L1723.63 1487.92ZM283.333 1000C283.333 604.196 604.196 283.333 1000 283.333C1395.81 283.333 1716.67 604.193 1716.67 1000C1716.67 1333.17 1489.32 1613.24 1181.3 1693.54C1110.56 1839.61 1059.11 1861.26 1000.42 1867.95V1868L1000.2 1867.97L999.976 1868V1867.95C941.304 1861.26 889.861 1839.62 819.155 1693.65C510.904 1613.51 283.333 1333.33 283.333 1000Z" fill="white"/>
<path fill-rule="evenodd" clip-rule="evenodd" d="M777.395 1518.5C875.205 1796.36 932.174 1827.88 1000 1835.95V1836L1000.2 1835.98L1000.39 1836V1835.95C1068.22 1827.88 1125.19 1796.36 1223 1518.5C1237.59 1477.06 1251.48 1438.05 1264.58 1401.23L1264.59 1401.23L1264.59 1401.23L1264.59 1401.23L1264.59 1401.23C1361.54 1128.9 1415.88 976.278 1396.5 841.5C1391.91 809.565 1383.5 780.091 1372.19 753.047C1388.77 705.995 1422.51 589.926 1370.09 546.237C1358.67 536.719 1345.12 532.927 1330.51 533.173C1296.38 533.749 1256.47 556.375 1224.42 579.529C1205.47 567.207 1186.26 556.872 1167.5 548.5C1089.72 513.798 1023.7 506.375 1000.2 506.995C976.69 506.375 910.676 513.798 832.895 548.5C813.135 557.316 792.883 568.308 772.966 581.507C741.238 558.828 702.211 537.058 668.741 536.494C654.134 536.248 640.586 540.039 629.164 549.557C576.849 593.154 610.337 708.826 626.954 756.071C616.272 782.284 608.316 810.751 603.895 841.5C584.515 976.278 638.854 1128.9 735.81 1401.23L735.811 1401.23C748.919 1438.05 762.806 1477.06 777.395 1518.5ZM1344.13 582.173C1374.47 607.455 1350.31 678.51 1343.08 697.619C1319.61 661.03 1290.7 630.27 1259.76 605.219C1277.65 591.337 1302.43 575.605 1323.17 575.255C1330.91 575.124 1338.08 577.133 1344.13 582.173ZM736.84 608.328C709.286 631.182 683.472 658.62 661.848 690.728L648.75 700.187C648.75 700.187 610.63 609.282 645.82 579.958C651.868 574.918 659.04 572.909 666.775 573.04C690.237 573.435 718.857 593.51 736.84 608.328ZM727.5 1034C747.658 1034 764 993.482 764 943.5C764 893.518 747.658 853 727.5 853C707.342 853 691 893.518 691 943.5C691 993.482 707.342 1034 727.5 1034ZM1272.5 1034C1292.66 1034 1309 993.482 1309 943.5C1309 893.518 1292.66 853 1272.5 853C1252.34 853 1236 893.518 1236 943.5C1236 993.482 1252.34 1034 1272.5 1034Z" fill="white"/>
<path fill-rule="evenodd" clip-rule="evenodd" d="M424.058 1383.39C434.471 1370.42 448.328 1353.7 466.5 1332.5C519.3 1270.9 602 1215.67 637 1196L804.576 1663.89C647.173 1617.55 513.077 1516.79 424.058 1383.39ZM1195.31 1664.22L1363 1196C1398 1215.67 1480.7 1270.9 1533.5 1332.5C1551.99 1354.07 1566.01 1371 1576.49 1384.07C1487.26 1517.45 1352.92 1618.11 1195.31 1664.22Z" fill="white"/>
</svg>
