<svg width="840" height="1165" viewBox="0 0 840 1165" fill="none" xmlns="http://www.w3.org/2000/svg">
<g filter="url(#filter0_d)">
<path d="M123.833 143.391L561.72 248.673V793.232L123.833 688.707V143.391Z" fill="url(#paint0_radial)" fill-opacity="0.6"/>
<path d="M123.833 133.764L126.239 239.046V783.605L123.833 679.079V133.764Z" fill="url(#paint1_radial)" fill-opacity="0.6"/>
<path d="M802.316 100.068L804.722 205.351V749.909L802.316 645.384V100.068Z" fill="url(#paint2_radial)" fill-opacity="0.6"/>
<path d="M559.437 255.399L803.606 178.105V715.787C793.068 738.244 586.666 825.932 559.437 815.238V255.399Z" fill="url(#paint3_linear)" fill-opacity="0.58"/>
<path d="M128.361 83.3722C137.637 79.3265 554.839 151.001 561.91 162.457C568.98 173.914 562.43 259.788 562.43 259.788C550.944 264.194 134.884 189.001 125.163 179.308C119.626 173.787 116.839 153.463 116.73 133.661C116.731 123.969 119.084 87.4179 128.361 83.3722Z" fill="url(#paint4_linear)"/>
<path d="M561.226 162.486C569.18 150.152 789.213 90.4146 803.349 90.4147C813.657 90.4148 807.987 172.335 803.349 182.909C797.166 197.008 568.454 265.792 560.021 259.786C562.431 235.761 566.044 209.334 561.226 162.486Z" fill="url(#paint5_linear)"/>
<path d="M474.521 889.365L512.865 834.219L559.1 785.401C567.583 772.132 794.904 703.569 804.275 703.569C809.187 709.763 813.312 981.33 804.275 1005.21C795.239 1029.1 488.606 1143.49 471.197 1133.76L474.521 889.365Z" fill="url(#paint6_linear)"/>
<path d="M37.3864 770.291C56.561 751.608 475.125 889.064 475.125 889.064C475.125 889.064 482.629 1116.09 476.032 1133.76C470.225 1149.31 43.5456 1014.14 37.3864 1000.01C29.688 982.337 25.5978 781.777 37.3864 770.291Z" fill="url(#paint7_linear)"/>
<path d="M121.26 681.738C135.766 676.309 547.374 776.848 557.622 787.209C549.463 792.633 474.823 889.666 474.823 889.666L37.4424 770.344C47.2498 743.313 106.755 687.167 121.26 681.738Z" fill="url(#paint8_linear)"/>
<g filter="url(#filter1_d)">
<ellipse rx="41.3485" ry="22.836" transform="matrix(0.999698 0.027775 -0.0272768 0.999545 407.89 809.967)" fill="#3D0B65"/>
</g>
<ellipse rx="38.2453" ry="21.1221" transform="matrix(0.999699 0.0277309 -0.0273201 0.999543 407.764 806.357)" fill="#5D1298"/>
<ellipse rx="33.0926" ry="18.2764" transform="matrix(0.999699 0.0277309 -0.02732 0.999543 407.498 801.892)" fill="black"/>
<ellipse rx="32.2984" ry="18.3953" transform="matrix(0.999644 0.0296719 -0.0292737 0.999487 407.219 799.912)" fill="#E165A9"/>
<ellipse rx="30.9998" ry="17.6557" transform="matrix(0.999644 0.0296719 -0.0292737 0.999487 407.109 795.518)" fill="#FCFF7C"/>
<ellipse rx="30.9998" ry="17.6557" transform="matrix(0.999644 0.0296719 -0.0292737 0.999487 407.109 795.518)" fill="#FF8DCB"/>
<path d="M386.217 785.201C388.797 782.696 391.798 782.832 392.844 783.268C393.911 783.712 394.161 784.778 394.088 785.141C393.955 785.811 393.776 786.704 391.998 786.351C391.108 786.174 390.015 786.242 388.796 787.339C387.576 788.437 388.072 789.601 386.881 791.14C386.259 791.945 385.052 791.473 384.747 791.412C384.441 791.351 383.769 790.521 384.036 789.18L384.04 789.164C384.175 788.483 384.496 786.872 386.217 785.201Z" fill="white"/>
<g filter="url(#filter2_d)">
<path d="M69.2842 864.17C69.2842 862.16 71.2234 860.718 73.1488 861.298L148.74 884.048C150.008 884.43 150.875 885.597 150.875 886.921V980.43C150.875 982.472 148.879 983.918 146.939 983.28L71.3475 958.435C70.1163 958.031 69.2842 956.881 69.2842 955.585V864.17Z" fill="url(#paint9_linear)"/>
</g>
<g filter="url(#filter3_d)">
<path d="M310.007 784.407C310.614 792.619 300.491 798.961 284.092 798.731C267.694 798.501 254.322 793.658 253.715 785.445C253.108 777.232 265.515 771.35 281.135 770.201C296.754 769.053 309.399 776.194 310.007 784.407Z" fill="#3D0B65"/>
</g>
<ellipse rx="23.9982" ry="12.6183" transform="matrix(0.999875 0.0158101 -0.0158988 0.999874 282.647 779.626)" fill="#5D1298"/>
<path d="M273.078 780.418C271.682 779.082 263.069 731.618 263.069 731.618C264.523 731.649 267.792 732.216 271.794 731.804C275.293 731.443 278.811 730.213 279.702 729.362C279.702 729.362 292.341 776.956 291.877 778.73C291.413 780.503 288.872 783.443 282.509 783.551C276.147 783.659 274.474 781.754 273.078 780.418Z" fill="#8260A5"/>
<path d="M291.771 778.707C291.771 784.318 280.145 784.213 273.782 784.318L263.052 733.224C266.551 732.869 278.691 730.802 279.582 729.962C279.582 729.962 291.771 773.096 291.771 778.707Z" fill="url(#paint10_linear)"/>
<ellipse cx="270.578" cy="718.315" rx="30.9796" ry="30.893" fill="#FCFF7C"/>
<ellipse cx="270.578" cy="718.315" rx="30.9796" ry="30.893" fill="#FF8DCB"/>
<path d="M270.724 749.198C287.834 749.198 301.558 735.979 301.558 718.918C301.558 715.604 301.035 712.412 300.067 709.42C299.15 705.704 295.444 697.186 287.949 692.846C298.828 703.393 297.343 715.275 296.411 721.474C295.504 727.501 289.584 736.725 280.999 741.363C273.746 745.28 264.681 746.486 248.967 740.459C254.547 745.873 262.323 749.198 270.724 749.198Z" fill="#E4E759" fill-opacity="0.75"/>
<path d="M270.724 749.198C287.834 749.198 301.558 735.979 301.558 718.918C301.558 715.604 301.035 712.412 300.067 709.42C299.15 705.704 295.444 697.186 287.949 692.846C298.828 703.393 297.343 715.275 296.411 721.474C295.504 727.501 289.584 736.725 280.999 741.363C273.746 745.28 264.681 746.486 248.967 740.459C254.547 745.873 262.323 749.198 270.724 749.198Z" fill="#E165A9"/>
<path d="M249.497 712.584C248.36 712.365 247.477 711.468 247.556 710.316C247.669 708.689 248.198 706.196 250.084 703.534C252.007 700.82 253.892 699.27 255.114 698.456C255.91 697.925 256.926 698.12 257.603 698.796C258.831 700.021 258.403 702.202 257.053 703.293C256.282 703.916 255.502 704.702 254.886 705.662C254.022 707.009 253.461 708.689 253.107 710.119C252.706 711.736 251.137 712.9 249.497 712.584Z" fill="white"/>
<path d="M114.088 731.909C115.33 730.407 117.36 729.809 119.217 730.399L172.74 747.417C175.604 748.327 176.65 751.832 174.755 754.167C173.665 755.51 171.871 756.064 170.214 755.57L116.394 739.511C113.123 738.535 111.912 734.542 114.088 731.909Z" fill="#5D1298"/>
<g filter="url(#filter4_d)">
<path d="M157.96 738.343C159.332 739.52 161.747 744.647 162.251 747.746L147.978 743.374C143.836 748.077 140.202 751.613 137.698 756.764C137.28 757.625 136.364 759.818 135.883 760.976C132.295 769.624 132.755 778.822 134.75 787.928C135.171 789.853 135.841 792.345 136.132 793.379C136.288 793.934 136.856 795.422 137.09 796.255C137.09 796.255 141.31 794.553 142.183 794.229C144.596 793.332 149.66 791.645 153.618 791.639C159.008 791.63 170.176 794.767 174.39 803.049C176.644 805.386 177.716 810.19 177.405 814.544C177.336 815.51 176.951 816.8 176.354 818.282C174.263 824.825 170.139 830.925 166.464 835.623C164.936 837.144 162.989 839.137 160.887 841.364C154.534 848.097 146.761 856.973 144.853 861.474C143.972 863.551 143.222 864.624 142.48 866.588C143.339 866.579 149.14 865.037 151.461 864.08C156.83 861.867 158.353 856.626 161.78 850.736L163.685 853.976L169.742 853.446L171.183 858.572L176.003 859.095L177.453 863.272L180.723 863.703C175.693 874.617 171.318 878.474 164.68 881.29C162.561 882.19 159.106 883.214 159.106 883.214C157.044 883.858 155.207 884.416 153.564 884.885C150.387 885.791 147.938 886.363 146.001 886.575C140.745 887.594 134.176 885.542 127.344 879.362C123.8 876.157 120.529 870.712 119.092 867.582C117.177 863.41 117.97 856.173 120.019 851.959C122.75 846.34 128.269 840.496 133.825 836.439C137.061 834.075 141.173 830.398 144.45 827.94C146.476 826.421 148.874 824.946 150.462 823.683C154.621 820.378 158.767 816.141 160.111 811.469C160.288 810.853 160.416 810.226 160.506 809.601C160.959 806.435 160.402 803.326 159.997 801.988C156.751 803.586 149.137 806.556 142.799 806.997C134.877 807.548 125.061 805.79 119.414 801.658C114.539 798.09 110.381 794.296 109.454 787.791C109.307 786.763 108.951 784.75 108.937 783.604C108.89 779.739 108.08 771.486 108.377 766.957C108.727 761.631 108.89 757.41 109.153 753.906C109.527 752.958 109.62 751.889 110.047 750.636C112.214 744.267 118.24 738.785 120.396 736.861C123.344 734.228 123.399 733.712 125.218 732.307C127.037 730.901 128.478 730.363 130.786 729.918C135.905 728.931 139.198 731.225 144.811 732.562C149.301 733.632 157.938 736.48 157.96 738.343Z" fill="#FCF9CB"/>
<path d="M157.96 738.343C159.332 739.52 161.747 744.647 162.251 747.746L147.978 743.374M157.96 738.343C157.938 736.48 149.301 733.632 144.811 732.562C139.198 731.225 135.905 728.931 130.786 729.918C128.478 730.363 127.037 730.901 125.218 732.307M157.96 738.343C156.381 736.988 153.254 737.51 152.192 738.607M136.132 793.379C135.841 792.345 135.171 789.853 134.75 787.928C132.755 778.822 132.295 769.624 135.883 760.976M136.132 793.379L109.454 787.791M136.132 793.379C136.288 793.934 136.856 795.422 137.09 796.255M142.48 866.588C143.222 864.624 143.972 863.551 144.853 861.474C146.761 856.973 154.534 848.097 160.887 841.364M142.48 866.588C143.339 866.579 149.14 865.037 151.461 864.08C156.83 861.867 158.353 856.626 161.78 850.736L163.685 853.976L169.742 853.446L171.183 858.572L176.003 859.095L177.453 863.272L180.723 863.703C175.693 874.617 171.318 878.474 164.68 881.29C162.561 882.19 159.106 883.214 159.106 883.214C157.044 883.858 155.207 884.416 153.564 884.885M142.48 866.588C141.714 868.614 140.712 871.33 140.394 873.307M142.48 866.588C142.48 866.588 141.943 868.102 141.374 870.056M120.019 851.959C117.97 856.173 117.177 863.41 119.092 867.582C120.529 870.712 123.8 876.157 127.344 879.362C134.176 885.542 140.745 887.594 146.001 886.575C135.511 887.093 139.221 879.508 140.472 873.584C140.723 872.397 141.054 871.157 141.374 870.056M120.019 851.959C122.75 846.34 128.269 840.496 133.825 836.439C137.061 834.075 141.173 830.398 144.45 827.94M120.019 851.959L140.394 873.307M159.997 801.988C163.514 800.644 169.597 801.106 172.18 801.721C173.009 801.919 173.748 802.384 174.39 803.049M159.997 801.988C156.751 803.586 149.137 806.556 142.799 806.997C134.877 807.548 125.061 805.79 119.414 801.658C114.539 798.09 110.381 794.296 109.454 787.791M159.997 801.988C160.402 803.326 160.959 806.435 160.506 809.601M159.997 801.988C158.841 802.429 157.817 802.847 156.872 803.217M125.218 732.307C123.399 733.712 123.344 734.228 120.396 736.861C118.24 738.785 112.214 744.267 110.047 750.636C109.62 751.889 109.527 752.958 109.153 753.906M125.218 732.307L152.192 738.607M152.192 738.607C151.176 739.789 149.262 741.516 147.978 743.374M109.153 753.906L135.883 760.976M109.153 753.906C108.89 757.41 108.727 761.631 108.377 766.957C108.08 771.486 108.89 779.739 108.937 783.604C108.951 784.75 109.307 786.763 109.454 787.791M135.883 760.976C136.364 759.818 137.28 757.625 137.698 756.764C140.202 751.613 143.836 748.077 147.978 743.374M160.506 809.601C160.416 810.226 160.288 810.853 160.111 811.469C158.767 816.141 154.621 820.378 150.462 823.683C148.874 824.946 146.476 826.421 144.45 827.94M160.506 809.601L176.354 818.282M176.354 818.282C176.951 816.8 177.336 815.51 177.405 814.544C177.716 810.19 176.644 805.386 174.39 803.049M176.354 818.282C174.263 824.825 170.139 830.925 166.464 835.623C164.936 837.144 162.989 839.137 160.887 841.364M144.45 827.94L160.887 841.364M140.394 873.307C139.831 876.806 137.815 882.091 139.348 884.225C141.585 887.339 144.808 887.383 153.564 884.885M174.39 803.049C170.176 794.767 159.008 791.63 153.618 791.639C149.66 791.645 144.596 793.332 142.183 794.229M137.09 796.255C138.15 801.199 143.735 803.865 149.301 804.598C152.037 804.958 154.123 804.292 156.872 803.217M137.09 796.255C137.09 796.255 141.31 794.553 142.183 794.229M156.872 803.217L142.183 794.229M153.564 884.885L141.374 870.056" stroke="#CEC65F" stroke-width="2" stroke-linecap="round" stroke-linejoin="round"/>
<path d="M132.942 841.844C129.563 845.157 126.627 848.246 126.574 850.655C126.499 854.119 135.094 861.75 137.596 861.052C140.098 860.354 142.408 854.171 146.154 850.431C149.901 846.692 153.325 843.94 152.7 841.719C152.075 839.499 145.835 833.307 143.055 834.083C140.274 834.858 136.882 837.981 132.942 841.844Z" stroke="#FBB2B2" stroke-opacity="0.7" stroke-width="2"/>
<path d="M121.176 872.039C121.18 872.591 121.631 873.036 122.184 873.033C122.736 873.029 123.181 872.579 123.177 872.027L121.176 872.039ZM135.007 884.109L134.776 885.081L136.723 885.547L136.954 884.575L135.007 884.109ZM123.177 872.027C123.174 871.585 123.112 870.724 123.059 869.774C123.004 868.793 122.953 867.649 122.961 866.547C122.97 865.433 123.04 864.418 123.206 863.673C123.289 863.298 123.385 863.049 123.472 862.902C123.558 862.757 123.577 862.804 123.485 862.83L122.943 860.905C122.364 861.066 121.986 861.482 121.748 861.883C121.512 862.283 121.358 862.759 121.252 863.235C121.04 864.19 120.969 865.375 120.96 866.528C120.951 867.695 121.005 868.888 121.061 869.882C121.118 870.908 121.173 871.66 121.176 872.039L123.177 872.027ZM123.485 862.83C123.371 862.862 123.326 862.832 123.408 862.854C123.481 862.873 123.605 862.919 123.783 863.014C124.14 863.203 124.604 863.524 125.154 863.97C126.248 864.856 127.567 866.141 128.873 867.565C130.176 868.987 131.443 870.522 132.437 871.898C133.459 873.313 134.106 874.445 134.287 875.088L136.214 874.55C135.926 873.529 135.078 872.141 134.059 870.731C133.012 869.281 131.694 867.685 130.348 866.217C129.005 864.751 127.612 863.389 126.413 862.418C125.817 861.935 125.239 861.525 124.719 861.249C124.459 861.111 124.185 860.992 123.91 860.92C123.645 860.85 123.3 860.805 122.943 860.905L123.485 862.83ZM134.287 875.088C134.73 876.661 134.991 878.605 135.097 880.347C135.205 882.124 135.142 883.543 135.007 884.109L136.954 884.575C137.163 883.698 137.203 882.021 137.094 880.23C136.983 878.403 136.708 876.307 136.214 874.55L134.287 875.088Z" fill="#FBB2B2" fill-opacity="0.7"/>
<path d="M160.548 834.891C159.218 834.963 151.452 829.047 151.592 828.11C151.732 827.172 155.854 825.44 157.862 822.343C159.64 819.602 161.128 815.297 161.923 814.923C162.718 814.549 170.659 818.599 170.932 819.57C171.244 820.681 168.462 826.247 166.884 828.633C165.622 830.542 161.557 834.837 160.548 834.891Z" stroke="#FBB2B2" stroke-opacity="0.7" stroke-width="2" stroke-linecap="round"/>
<path d="M162.516 801.869C162.516 801.869 163.015 805.049 163.843 806.587C164.671 808.124 172.394 811.937 173.223 811.153C174.052 810.369 171.876 802.101 171.876 802.101" stroke="#FBB2B2" stroke-opacity="0.7" stroke-width="2" stroke-linecap="round"/>
<path d="M169.443 797.701C164.925 796.567 158.568 799.239 157.633 798.901C156.464 798.478 150.409 795.078 150.652 793.812C150.847 792.799 154.473 792.646 156.987 792.344" stroke="#FBB2B2" stroke-opacity="0.7" stroke-width="2" stroke-linecap="round"/>
<path d="M148.001 804.138C148.926 804.229 150.706 804.161 150.425 803.162C150.074 801.913 144.046 797.009 142.499 796.841C141.262 796.708 139.162 797.772 138.267 798.322" stroke="#FBB2B2" stroke-opacity="0.7" stroke-width="2" stroke-linecap="round"/>
<path d="M120.572 802.07C118.5 799.504 115.527 796.292 115.882 794.996C116.237 793.699 127.672 796.396 133.346 797.907C133.346 797.907 134.883 800.779 136.242 802.338C137.916 804.26 141.301 806.465 141.301 806.465" stroke="#FBB2B2" stroke-opacity="0.7" stroke-width="2" stroke-linecap="round"/>
<path d="M130.174 787.133C128.905 788.662 114.806 785.795 113.743 784.684C112.681 783.573 111.963 778.805 112.266 773.572C112.57 768.316 112.675 762.234 113.831 761.014C114.986 759.793 129.207 762.916 129.895 765.361C130.071 765.988 128.599 770.309 128.323 775.228C128.074 779.677 130.92 786.234 130.174 787.133Z" stroke="#FBB2B2" stroke-opacity="0.7" stroke-width="2" stroke-linecap="round"/>
<path d="M116.715 749.89C116.762 751.52 130.278 755.636 131.989 754.61C132.973 754.021 134.778 750.063 137.062 747.057C139.791 743.466 143.133 742.519 142.782 741.27C142.223 739.282 128.371 735.798 126.795 736.149C125.22 736.501 122.981 738.32 120.441 741.815C117.757 745.509 116.687 748.932 116.715 749.89Z" stroke="#FBB2B2" stroke-opacity="0.7" stroke-width="2" stroke-linecap="round"/>
<path d="M140.368 884.101C142.08 883.973 145.646 883.467 146.205 882.472C146.765 881.478 143.198 876.577 141.344 874.251" stroke="#FBB2B2" stroke-opacity="0.7" stroke-width="2" stroke-linecap="round"/>
<path d="M148.795 869.772C145.714 871.081 154.815 878.911 155.895 879.019C157.437 879.172 161.613 878.022 166.506 875.16C171.399 872.298 174.55 868.574 174.064 866.314C173.676 864.507 164.145 857.705 162.654 858.271C161.164 858.836 159.937 863.343 157.264 865.762C154.635 868.143 151.876 868.463 148.795 869.772Z" stroke="#FBB2B2" stroke-opacity="0.7" stroke-width="2" stroke-linecap="round"/>
<path d="M151.879 740.693C151.879 740.693 155.302 742.485 155.701 742.022C156.04 741.628 154.725 738.552 154.725 738.552" stroke="#FBB2B2" stroke-opacity="0.7" stroke-width="2" stroke-linecap="round"/>
<path d="M159.583 871.77C159.287 871.83 159.033 871.556 159.117 871.267L159.58 869.673C159.611 869.569 159.597 869.458 159.544 869.364L158.718 867.922C158.568 867.66 158.751 867.334 159.053 867.325L160.716 867.274C160.825 867.271 160.927 867.224 161 867.144L162.119 865.917C162.322 865.694 162.69 865.768 162.792 866.051L163.357 867.613C163.393 867.715 163.47 867.797 163.569 867.842L165.086 868.525C165.361 868.649 165.406 869.021 165.167 869.205L163.853 870.221C163.767 870.288 163.712 870.386 163.7 870.493L163.519 872.143C163.486 872.442 163.145 872.598 162.896 872.429L161.519 871.495C161.429 871.434 161.319 871.412 161.212 871.434L159.583 871.77Z" fill="#FFA996"/>
<path d="M134.419 848.912C134.118 848.939 133.896 848.637 134.012 848.359L134.743 846.612C134.785 846.512 134.784 846.4 134.741 846.3L133.99 844.559C133.871 844.283 134.09 843.979 134.39 844.004L136.284 844.159C136.392 844.168 136.499 844.133 136.58 844.062L138.008 842.814C138.234 842.615 138.592 842.73 138.661 843.023L139.1 844.866C139.125 844.971 139.192 845.062 139.286 845.117L140.918 846.087C141.178 846.241 141.18 846.615 140.922 846.771L139.3 847.755C139.208 847.812 139.142 847.903 139.118 848.008L138.7 849.856C138.633 850.149 138.278 850.266 138.049 850.07L136.607 848.835C136.525 848.764 136.418 848.73 136.31 848.739L134.419 848.912Z" fill="#FFA996"/>
<path d="M126.979 878.407C126.752 878.552 126.45 878.437 126.377 878.179L126.102 877.203C126.089 877.154 126.066 877.108 126.034 877.068L125.154 875.924C124.932 875.635 125.181 875.225 125.54 875.287L126.255 875.411C126.366 875.43 126.48 875.402 126.569 875.332L127.763 874.403C128.072 874.162 128.509 874.464 128.392 874.838L128.084 875.817C128.004 876.074 128.196 876.336 128.467 876.336L130.032 876.337C130.386 876.337 130.566 876.762 130.32 877.015L129.459 877.899C129.347 878.014 129.315 878.184 129.377 878.332L129.57 878.79C129.731 879.171 129.276 879.515 128.952 879.257L127.704 878.266C127.57 878.159 127.382 878.149 127.238 878.242L126.979 878.407Z" fill="#FFA996"/>
<path d="M161.007 826.74C160.714 826.81 160.451 826.543 160.526 826.251L160.847 825.01C160.874 824.906 160.857 824.794 160.801 824.702L160.129 823.608C159.972 823.351 160.145 823.019 160.446 823.001L161.729 822.923C161.838 822.917 161.938 822.866 162.009 822.784L162.844 821.811C163.04 821.582 163.41 821.644 163.521 821.925L163.994 823.117C164.033 823.218 164.113 823.298 164.213 823.34L165.4 823.833C165.679 823.948 165.735 824.318 165.502 824.51L164.511 825.325C164.427 825.394 164.375 825.493 164.366 825.601L164.265 826.879C164.241 827.179 163.906 827.346 163.651 827.184L162.566 826.495C162.474 826.437 162.363 826.418 162.258 826.443L161.007 826.74Z" fill="#FFA996"/>
<path d="M116.621 774.929C116.36 774.778 116.352 774.403 116.608 774.243L118.261 773.209C118.352 773.151 118.417 773.059 118.439 772.953L118.843 771.047C118.906 770.752 119.26 770.63 119.491 770.824L120.99 772.075C121.073 772.144 121.181 772.177 121.288 772.166L123.23 771.963C123.53 771.931 123.756 772.23 123.643 772.51L122.917 774.317C122.876 774.418 122.878 774.53 122.923 774.629L123.718 776.409C123.841 776.685 123.627 776.992 123.326 776.971L121.378 776.837C121.27 776.83 121.164 776.867 121.083 776.939L119.633 778.243C119.409 778.444 119.051 778.335 118.977 778.043L118.501 776.152C118.474 776.047 118.406 775.957 118.312 775.903L116.621 774.929Z" fill="#FFA996"/>
<path d="M125.362 743.32C125.174 743.061 125.352 742.697 125.672 742.686L127.351 742.627C127.463 742.623 127.568 742.572 127.641 742.488L128.693 741.266C128.88 741.049 129.228 741.092 129.356 741.348L130.158 742.956C130.202 743.045 130.277 743.114 130.369 743.15L132.077 743.825C132.363 743.938 132.419 744.319 132.178 744.51L130.97 745.465C130.875 745.541 130.819 745.655 130.818 745.775L130.807 747.314C130.804 747.621 130.47 747.811 130.204 747.655L128.619 746.728C128.534 746.678 128.433 746.661 128.337 746.681L126.572 747.04C126.291 747.097 126.043 746.85 126.1 746.57L126.417 744.99C126.439 744.881 126.414 744.767 126.349 744.677L125.362 743.32Z" fill="#FFA996"/>
</g>
<path d="M398.605 30.3533C460.04 30.3533 771.298 75.5554 805.758 89.2135L564.839 168.103L128.776 83.2074C163.682 68.6698 331.148 30.3533 398.605 30.3533Z" fill="url(#paint11_linear)"/>
</g>
<g filter="url(#filter5_dd)">
<path d="M519.072 196.114L528.709 197.182V205.724L519.072 204.656V196.114Z" fill="white"/>
</g>
<g filter="url(#filter6_dd)">
<path d="M152.705 145.798L162.329 146.867V155.425L152.705 154.355V145.798Z" fill="white"/>
</g>
<g filter="url(#filter7_dd)">
<path d="M533.527 220.139L538.346 220.673V224.944L533.527 224.41V220.139Z" fill="white"/>
</g>
<g filter="url(#filter8_dd)">
<path d="M143.226 128.85L148.044 129.384V133.655L143.226 133.121V128.85Z" fill="white"/>
</g>
<g filter="url(#filter9_dd)">
<path d="M200.824 178.136V150.365M200.824 124.136V150.365M236.914 184.307V158.079M236.914 129.999V158.079M200.824 150.365L236.914 158.079" stroke="white" stroke-width="5" stroke-linecap="square" stroke-linejoin="bevel"/>
<path d="M273.627 190.408L283.83 166.269M311.499 195.151L305.484 171.082M305.484 171.082L296.07 136.342L283.83 166.269M305.484 171.082L283.83 166.269" stroke="white" stroke-width="5" stroke-linecap="square" stroke-linejoin="bevel"/>
<path d="M431.797 162.645V191.147M431.797 218.187V191.147M431.797 191.147H437.01M459.599 167.274L437.01 191.147M437.01 191.147L463.074 222.816" stroke="white" stroke-width="5" stroke-linecap="square" stroke-linejoin="bevel"/>
<path d="M383.678 160.074C383.678 154.222 375.257 149.408 367.571 150.611C359.884 151.815 349.995 160.986 349.994 178.335C349.993 195.683 357.322 204.231 367.571 205.811C376.356 207.165 383.678 199.427 383.678 196.273" stroke="white" stroke-width="5" stroke-linecap="square" stroke-linejoin="bevel"/>
</g>
<g filter="url(#filter10_d)">
<path d="M387.676 957.191C397.388 979.166 431.496 974.958 443.208 973.504C444.768 973.311 445.69 974.854 444.755 976.116C436.298 987.53 422.655 994.94 407.265 994.94C376.237 994.94 357.649 974.678 357.649 949.262C357.649 923.846 376.237 907.632 400.83 904.233C404.816 903.683 405.032 909.095 401.596 911.19C386.902 920.145 379.113 937.815 387.676 957.191Z" fill="#FFF5C2"/>
</g>
<g filter="url(#filter11_d)">
<path d="M266.335 866.134C266.775 864.642 268.676 864.202 269.729 865.349L275.902 872.078C276.295 872.506 276.854 872.742 277.435 872.726L286.568 872.465C288.128 872.42 289.138 874.097 288.368 875.452L283.866 883.372C283.579 883.878 283.526 884.484 283.723 885.033L286.793 893.611C287.318 895.078 286.039 896.553 284.512 896.242L275.55 894.417C274.981 894.301 274.391 894.437 273.931 894.791L266.688 900.362C265.454 901.311 263.655 900.547 263.479 899L262.452 889.949C262.387 889.371 262.072 888.849 261.59 888.521L254.054 883.384C252.765 882.505 252.932 880.555 254.352 879.911L262.669 876.139C263.198 875.899 263.596 875.441 263.76 874.884L266.335 866.134Z" fill="#95ECFF"/>
</g>
<g filter="url(#filter12_d)">
<path d="M408.428 1049.82C408.867 1048.33 410.768 1047.89 411.821 1049.04L420.13 1058.09C420.523 1058.52 421.082 1058.76 421.663 1058.74L433.959 1058.39C435.518 1058.34 436.528 1060.02 435.758 1061.38L429.697 1072.04C429.41 1072.55 429.357 1073.15 429.553 1073.7L433.687 1085.25C434.212 1086.72 432.933 1088.19 431.406 1087.88L419.344 1085.43C418.776 1085.31 418.185 1085.45 417.726 1085.8L407.977 1093.3C406.743 1094.25 404.944 1093.48 404.768 1091.94L403.385 1079.75C403.32 1079.17 403.005 1078.65 402.524 1078.32L392.375 1071.4C391.086 1070.53 391.253 1068.58 392.673 1067.93L403.87 1062.85C404.399 1062.61 404.797 1062.16 404.961 1061.6L408.428 1049.82Z" fill="#95ECFF"/>
</g>
<g opacity="0.7">
<g filter="url(#filter13_d)">
<ellipse rx="55.5744" ry="49.1746" transform="matrix(0.97305 0.230594 -0.231818 0.972759 636.589 901.236)" fill="url(#paint12_linear)"/>
<path d="M682.345 930.399C659.494 939.693 639.722 925.647 618.321 915.226L581.412 895.782C579.92 919.702 598.43 942.605 625.008 948.904C649.605 954.732 666.806 944.291 666.806 944.291C666.806 944.291 679.709 936.651 682.345 930.399Z" fill="#52A3B5"/>
<path d="M634.133 912.162C606.781 905.65 581.356 897.136 576.114 887.884C573.771 883.749 579.767 882.976 584.1 883.239L586.167 878.571C586.167 878.571 576.185 877.161 571.138 877.493C566.091 877.825 538.712 877.258 549.088 889.842C559.464 902.426 579.65 916.23 630.303 928.234C680.956 940.237 704.975 933.299 717.985 927.575C734.634 920.25 715.662 909.259 707.523 907.33C699.385 905.401 693.546 903.445 691.608 903.558L691.349 908.655C697.679 910.155 699.343 913.593 694.938 916.043C690.533 918.493 666.384 919.84 634.133 912.162Z" fill="url(#paint13_linear)"/>
</g>
<g filter="url(#filter14_d)">
<path d="M721.719 766.948C721.914 765.456 723.629 764.709 724.859 765.58L736.288 773.67C736.731 773.983 737.281 774.104 737.813 774.005L751.586 771.447C753.07 771.171 754.316 772.573 753.865 774.011L749.684 787.339C749.522 787.856 749.577 788.417 749.837 788.893L756.532 801.163C757.254 802.486 756.308 804.099 754.8 804.115L740.783 804.269C740.242 804.275 739.727 804.5 739.355 804.891L729.716 815.039C728.678 816.131 726.849 815.727 726.366 814.3L721.891 801.063C721.717 800.55 721.342 800.128 720.852 799.895L708.207 793.895C706.842 793.247 706.658 791.383 707.869 790.485L719.112 782.149C719.546 781.827 719.831 781.343 719.902 780.806L721.719 766.948Z" fill="#FFA8C3"/>
</g>
<g filter="url(#filter15_d)">
<path d="M747.458 943.391C747.897 941.899 749.798 941.46 750.851 942.607L757.024 949.335C757.417 949.763 757.976 950 758.557 949.983L767.691 949.722C769.25 949.678 770.26 951.355 769.49 952.71L764.989 960.63C764.701 961.136 764.648 961.742 764.845 962.29L767.915 970.869C768.44 972.335 767.161 973.81 765.634 973.499L756.672 971.674C756.104 971.558 755.513 971.695 755.054 972.048L747.81 977.619C746.577 978.568 744.777 977.805 744.602 976.257L743.574 967.207C743.509 966.628 743.194 966.107 742.712 965.779L735.176 960.641C733.887 959.762 734.054 957.813 735.474 957.169L743.791 953.396C744.32 953.156 744.718 952.699 744.882 952.142L747.458 943.391Z" fill="#95ECFF"/>
</g>
<g filter="url(#filter16_d)">
<path d="M548.311 1013.05C548.469 1011.5 550.259 1010.72 551.504 1011.65L558.009 1016.54C558.474 1016.89 559.067 1017.02 559.635 1016.9L567.591 1015.19C569.116 1014.86 570.416 1016.32 569.908 1017.79L567.26 1025.46C567.07 1026.01 567.13 1026.62 567.423 1027.12L571.514 1034.13C572.299 1035.48 571.311 1037.16 569.752 1037.14L561.607 1036.99C561.027 1036.98 560.471 1037.23 560.083 1037.66L554.652 1043.71C553.613 1044.87 551.703 1044.45 551.247 1042.96L548.868 1035.2C548.697 1034.64 548.293 1034.19 547.759 1033.95L540.319 1030.68C538.891 1030.05 538.698 1028.11 539.976 1027.21L546.643 1022.56C547.119 1022.23 547.427 1021.7 547.486 1021.13L548.311 1013.05Z" fill="#FFA8C3"/>
</g>
</g>
<g filter="url(#filter17_d)">
<path d="M242.973 983.215C235.146 985.647 227.253 989.046 220.968 991.835L221.225 1006.06L240.683 1008.85C243.735 1006.19 244.755 1004.53 250.862 1000.22C256.97 995.903 259.005 993.534 268.676 990.828C278.346 988.122 288.933 986.76 289.543 986.26C291.398 984.738 284.99 980.178 270.966 979.155C260.532 978.393 253.592 979.916 242.973 983.215Z" fill="#FFF5C2"/>
<path d="M246.536 990.828C239.044 994.149 231.189 999.205 224.905 1001.99L221.224 1006.06L240.682 1008.85C243.734 1006.19 244.754 1004.53 250.861 1000.22C256.969 995.904 259.005 993.534 268.675 990.828C278.345 988.123 288.932 986.761 289.542 986.261C291.397 984.738 285.471 983.215 273.001 984.23C262.574 985.079 253.407 987.782 246.536 990.828Z" fill="#FFFADE"/>
<path d="M232.223 979.829C233.635 979.168 235.228 980.299 235.063 981.846L233.349 997.962C233.288 998.539 233.481 999.114 233.879 999.537L244.987 1011.36C246.053 1012.5 245.465 1014.36 243.938 1014.68L228.044 1018.04C227.475 1018.16 226.985 1018.52 226.704 1019.03L218.86 1033.21C218.106 1034.58 216.149 1034.6 215.371 1033.25L207.258 1019.21C206.968 1018.7 206.473 1018.35 205.902 1018.24L189.942 1015.19C188.411 1014.89 187.79 1013.04 188.835 1011.89L199.718 999.858C200.108 999.427 200.291 998.847 200.219 998.271L198.202 982.196C198.009 980.652 199.582 979.488 201.007 980.122L215.844 986.727C216.375 986.963 216.983 986.958 217.51 986.711L232.223 979.829Z" fill="#FFA8C3"/>
</g>
<g opacity="0.7" filter="url(#filter18_d)">
<ellipse rx="30.3199" ry="26.6442" transform="matrix(0.959056 -0.283217 0.28433 0.958726 697.603 175.994)" fill="url(#paint14_radial)"/>
<path d="M727.176 177.332C718.878 187.868 705.707 186.612 692.749 187.498L670.001 188.335C675.782 199.972 690.756 205.729 705.048 201.509C718.275 197.603 723.587 188.053 723.587 188.053C723.587 188.053 727.624 180.98 727.176 177.332Z" fill="#CA5773"/>
<path d="M699.419 181.822C684.71 186.143 670.368 189.003 665.377 186.07C663.146 184.759 665.773 182.778 667.894 181.732L667.606 178.981C667.606 178.981 662.5 181.012 660.202 182.53C657.904 184.048 644.795 191.171 653.121 194.284C661.446 197.397 674.744 198.437 701.969 190.408C729.195 182.38 738.676 172.637 743.278 166.436C749.168 158.501 737.208 158.455 732.834 159.745C728.459 161.035 725.165 161.692 724.279 162.268L725.54 164.733C728.942 163.73 730.663 164.896 729.243 167.236C727.824 169.577 716.763 176.727 699.419 181.822Z" fill="url(#paint15_linear)"/>
</g>
<defs>
<filter id="filter0_d" x="0" y="0.353333" width="839.616" height="1164.65" filterUnits="userSpaceOnUse" color-interpolation-filters="sRGB">
<feFlood flood-opacity="0" result="BackgroundImageFix"/>
<feColorMatrix in="SourceAlpha" type="matrix" values="0 0 0 0 0 0 0 0 0 0 0 0 0 0 0 0 0 0 127 0" result="hardAlpha"/>
<feOffset/>
<feGaussianBlur stdDeviation="15"/>
<feComposite in2="hardAlpha" operator="out"/>
<feColorMatrix type="matrix" values="0 0 0 0 0.779167 0 0 0 0 0.98701 0 0 0 0 1 0 0 0 0.7 0"/>
<feBlend mode="lighten" in2="BackgroundImageFix" result="effect1_dropShadow"/>
<feBlend mode="normal" in="SourceGraphic" in2="effect1_dropShadow" result="shape"/>
</filter>
<filter id="filter1_d" x="362.549" y="783.112" width="90.6816" height="53.7099" filterUnits="userSpaceOnUse" color-interpolation-filters="sRGB">
<feFlood flood-opacity="0" result="BackgroundImageFix"/>
<feColorMatrix in="SourceAlpha" type="matrix" values="0 0 0 0 0 0 0 0 0 0 0 0 0 0 0 0 0 0 127 0" result="hardAlpha"/>
<feOffset/>
<feGaussianBlur stdDeviation="2"/>
<feColorMatrix type="matrix" values="0 0 0 0 1 0 0 0 0 0.8 0 0 0 0 0.8 0 0 0 0.5 0"/>
<feBlend mode="normal" in2="BackgroundImageFix" result="effect1_dropShadow"/>
<feBlend mode="normal" in="SourceGraphic" in2="effect1_dropShadow" result="shape"/>
</filter>
<filter id="filter2_d" x="39.2842" y="831.168" width="141.591" height="182.264" filterUnits="userSpaceOnUse" color-interpolation-filters="sRGB">
<feFlood flood-opacity="0" result="BackgroundImageFix"/>
<feColorMatrix in="SourceAlpha" type="matrix" values="0 0 0 0 0 0 0 0 0 0 0 0 0 0 0 0 0 0 127 0" result="hardAlpha"/>
<feOffset/>
<feGaussianBlur stdDeviation="15"/>
<feColorMatrix type="matrix" values="0 0 0 0 1 0 0 0 0 0.85 0 0 0 0 0.949 0 0 0 0.5 0"/>
<feBlend mode="normal" in2="BackgroundImageFix" result="effect1_dropShadow"/>
<feBlend mode="normal" in="SourceGraphic" in2="effect1_dropShadow" result="shape"/>
</filter>
<filter id="filter3_d" x="246.693" y="763.08" width="70.3389" height="42.6579" filterUnits="userSpaceOnUse" color-interpolation-filters="sRGB">
<feFlood flood-opacity="0" result="BackgroundImageFix"/>
<feColorMatrix in="SourceAlpha" type="matrix" values="0 0 0 0 0 0 0 0 0 0 0 0 0 0 0 0 0 0 127 0" result="hardAlpha"/>
<feOffset/>
<feGaussianBlur stdDeviation="3.5"/>
<feColorMatrix type="matrix" values="0 0 0 0 1 0 0 0 0 0.804167 0 0 0 0 0.804167 0 0 0 0.5 0"/>
<feBlend mode="normal" in2="BackgroundImageFix" result="effect1_dropShadow"/>
<feBlend mode="normal" in="SourceGraphic" in2="effect1_dropShadow" result="shape"/>
</filter>
<filter id="filter4_d" x="101.312" y="726.679" width="86.4121" height="171.145" filterUnits="userSpaceOnUse" color-interpolation-filters="sRGB">
<feFlood flood-opacity="0" result="BackgroundImageFix"/>
<feColorMatrix in="SourceAlpha" type="matrix" values="0 0 0 0 0 0 0 0 0 0 0 0 0 0 0 0 0 0 127 0" result="hardAlpha"/>
<feOffset dy="4"/>
<feGaussianBlur stdDeviation="3"/>
<feColorMatrix type="matrix" values="0 0 0 0 0 0 0 0 0 0 0 0 0 0 0 0 0 0 0.25 0"/>
<feBlend mode="normal" in2="BackgroundImageFix" result="effect1_dropShadow"/>
<feBlend mode="normal" in="SourceGraphic" in2="effect1_dropShadow" result="shape"/>
</filter>
<filter id="filter5_dd" x="514.072" y="191.114" width="19.6367" height="19.6098" filterUnits="userSpaceOnUse" color-interpolation-filters="sRGB">
<feFlood flood-opacity="0" result="BackgroundImageFix"/>
<feColorMatrix in="SourceAlpha" type="matrix" values="0 0 0 0 0 0 0 0 0 0 0 0 0 0 0 0 0 0 127 0" result="hardAlpha"/>
<feOffset/>
<feGaussianBlur stdDeviation="2.5"/>
<feColorMatrix type="matrix" values="0 0 0 0 1 0 0 0 0 0.866667 0 0 0 0 0.954667 0 0 0 1 0"/>
<feBlend mode="normal" in2="BackgroundImageFix" result="effect1_dropShadow"/>
<feColorMatrix in="SourceAlpha" type="matrix" values="0 0 0 0 0 0 0 0 0 0 0 0 0 0 0 0 0 0 127 0" result="hardAlpha"/>
<feOffset/>
<feGaussianBlur stdDeviation="2"/>
<feColorMatrix type="matrix" values="0 0 0 0 1 0 0 0 0 0.7625 0 0 0 0 0.7625 0 0 0 1 0"/>
<feBlend mode="normal" in2="effect1_dropShadow" result="effect2_dropShadow"/>
<feBlend mode="normal" in="SourceGraphic" in2="effect2_dropShadow" result="shape"/>
</filter>
<filter id="filter6_dd" x="147.705" y="140.798" width="19.6239" height="19.6273" filterUnits="userSpaceOnUse" color-interpolation-filters="sRGB">
<feFlood flood-opacity="0" result="BackgroundImageFix"/>
<feColorMatrix in="SourceAlpha" type="matrix" values="0 0 0 0 0 0 0 0 0 0 0 0 0 0 0 0 0 0 127 0" result="hardAlpha"/>
<feOffset/>
<feGaussianBlur stdDeviation="2.5"/>
<feColorMatrix type="matrix" values="0 0 0 0 1 0 0 0 0 0.866667 0 0 0 0 0.954667 0 0 0 1 0"/>
<feBlend mode="normal" in2="BackgroundImageFix" result="effect1_dropShadow"/>
<feColorMatrix in="SourceAlpha" type="matrix" values="0 0 0 0 0 0 0 0 0 0 0 0 0 0 0 0 0 0 127 0" result="hardAlpha"/>
<feOffset/>
<feGaussianBlur stdDeviation="2"/>
<feColorMatrix type="matrix" values="0 0 0 0 1 0 0 0 0 0.7625 0 0 0 0 0.7625 0 0 0 1 0"/>
<feBlend mode="normal" in2="effect1_dropShadow" result="effect2_dropShadow"/>
<feBlend mode="normal" in="SourceGraphic" in2="effect2_dropShadow" result="shape"/>
</filter>
<filter id="filter7_dd" x="528.527" y="215.139" width="14.8184" height="14.8049" filterUnits="userSpaceOnUse" color-interpolation-filters="sRGB">
<feFlood flood-opacity="0" result="BackgroundImageFix"/>
<feColorMatrix in="SourceAlpha" type="matrix" values="0 0 0 0 0 0 0 0 0 0 0 0 0 0 0 0 0 0 127 0" result="hardAlpha"/>
<feOffset/>
<feGaussianBlur stdDeviation="2.5"/>
<feColorMatrix type="matrix" values="0 0 0 0 1 0 0 0 0 0.866667 0 0 0 0 0.954667 0 0 0 1 0"/>
<feBlend mode="normal" in2="BackgroundImageFix" result="effect1_dropShadow"/>
<feColorMatrix in="SourceAlpha" type="matrix" values="0 0 0 0 0 0 0 0 0 0 0 0 0 0 0 0 0 0 127 0" result="hardAlpha"/>
<feOffset/>
<feGaussianBlur stdDeviation="2"/>
<feColorMatrix type="matrix" values="0 0 0 0 1 0 0 0 0 0.7625 0 0 0 0 0.7625 0 0 0 1 0"/>
<feBlend mode="normal" in2="effect1_dropShadow" result="effect2_dropShadow"/>
<feBlend mode="normal" in="SourceGraphic" in2="effect2_dropShadow" result="shape"/>
</filter>
<filter id="filter8_dd" x="138.226" y="123.85" width="14.8184" height="14.8049" filterUnits="userSpaceOnUse" color-interpolation-filters="sRGB">
<feFlood flood-opacity="0" result="BackgroundImageFix"/>
<feColorMatrix in="SourceAlpha" type="matrix" values="0 0 0 0 0 0 0 0 0 0 0 0 0 0 0 0 0 0 127 0" result="hardAlpha"/>
<feOffset/>
<feGaussianBlur stdDeviation="2.5"/>
<feColorMatrix type="matrix" values="0 0 0 0 1 0 0 0 0 0.866667 0 0 0 0 0.954667 0 0 0 1 0"/>
<feBlend mode="normal" in2="BackgroundImageFix" result="effect1_dropShadow"/>
<feColorMatrix in="SourceAlpha" type="matrix" values="0 0 0 0 0 0 0 0 0 0 0 0 0 0 0 0 0 0 127 0" result="hardAlpha"/>
<feOffset/>
<feGaussianBlur stdDeviation="2"/>
<feColorMatrix type="matrix" values="0 0 0 0 1 0 0 0 0 0.7625 0 0 0 0 0.7625 0 0 0 1 0"/>
<feBlend mode="normal" in2="effect1_dropShadow" result="effect2_dropShadow"/>
<feBlend mode="normal" in="SourceGraphic" in2="effect2_dropShadow" result="shape"/>
</filter>
<filter id="filter9_dd" x="193.324" y="116.636" width="278.269" height="114.699" filterUnits="userSpaceOnUse" color-interpolation-filters="sRGB">
<feFlood flood-opacity="0" result="BackgroundImageFix"/>
<feColorMatrix in="SourceAlpha" type="matrix" values="0 0 0 0 0 0 0 0 0 0 0 0 0 0 0 0 0 0 127 0" result="hardAlpha"/>
<feOffset/>
<feGaussianBlur stdDeviation="2.5"/>
<feColorMatrix type="matrix" values="0 0 0 0 1 0 0 0 0 0.866667 0 0 0 0 0.952941 0 0 0 1 0"/>
<feBlend mode="normal" in2="BackgroundImageFix" result="effect1_dropShadow"/>
<feColorMatrix in="SourceAlpha" type="matrix" values="0 0 0 0 0 0 0 0 0 0 0 0 0 0 0 0 0 0 127 0" result="hardAlpha"/>
<feOffset/>
<feGaussianBlur stdDeviation="2"/>
<feColorMatrix type="matrix" values="0 0 0 0 1 0 0 0 0 0.760784 0 0 0 0 0.760784 0 0 0 1 0"/>
<feBlend mode="normal" in2="effect1_dropShadow" result="effect2_dropShadow"/>
<feBlend mode="normal" in="SourceGraphic" in2="effect2_dropShadow" result="shape"/>
</filter>
<filter id="filter10_d" x="348.649" y="894.646" width="107.14" height="109.293" filterUnits="userSpaceOnUse" color-interpolation-filters="sRGB">
<feFlood flood-opacity="0" result="BackgroundImageFix"/>
<feColorMatrix in="SourceAlpha" type="matrix" values="0 0 0 0 0 0 0 0 0 0 0 0 0 0 0 0 0 0 127 0" result="hardAlpha"/>
<feOffset/>
<feGaussianBlur stdDeviation="4.5"/>
<feColorMatrix type="matrix" values="0 0 0 0 1 0 0 0 0 1 0 0 0 0 1 0 0 0 0.75 0"/>
<feBlend mode="normal" in2="BackgroundImageFix" result="effect1_dropShadow"/>
<feBlend mode="normal" in="SourceGraphic" in2="effect1_dropShadow" result="shape"/>
</filter>
<filter id="filter11_d" x="245.18" y="856.699" width="51.4521" height="52.079" filterUnits="userSpaceOnUse" color-interpolation-filters="sRGB">
<feFlood flood-opacity="0" result="BackgroundImageFix"/>
<feColorMatrix in="SourceAlpha" type="matrix" values="0 0 0 0 0 0 0 0 0 0 0 0 0 0 0 0 0 0 127 0" result="hardAlpha"/>
<feOffset/>
<feGaussianBlur stdDeviation="4"/>
<feColorMatrix type="matrix" values="0 0 0 0 1 0 0 0 0 1 0 0 0 0 1 0 0 0 0.75 0"/>
<feBlend mode="normal" in2="BackgroundImageFix" result="effect1_dropShadow"/>
<feBlend mode="normal" in="SourceGraphic" in2="effect1_dropShadow" result="shape"/>
</filter>
<filter id="filter12_d" x="383.501" y="1040.39" width="60.5215" height="61.3283" filterUnits="userSpaceOnUse" color-interpolation-filters="sRGB">
<feFlood flood-opacity="0" result="BackgroundImageFix"/>
<feColorMatrix in="SourceAlpha" type="matrix" values="0 0 0 0 0 0 0 0 0 0 0 0 0 0 0 0 0 0 127 0" result="hardAlpha"/>
<feOffset/>
<feGaussianBlur stdDeviation="4"/>
<feColorMatrix type="matrix" values="0 0 0 0 1 0 0 0 0 1 0 0 0 0 1 0 0 0 0.75 0"/>
<feBlend mode="normal" in2="BackgroundImageFix" result="effect1_dropShadow"/>
<feBlend mode="normal" in="SourceGraphic" in2="effect1_dropShadow" result="shape"/>
</filter>
<filter id="filter13_d" x="516.806" y="794.567" width="237.482" height="217.066" filterUnits="userSpaceOnUse" color-interpolation-filters="sRGB">
<feFlood flood-opacity="0" result="BackgroundImageFix"/>
<feColorMatrix in="SourceAlpha" type="matrix" values="0 0 0 0 0 0 0 0 0 0 0 0 0 0 0 0 0 0 127 0" result="hardAlpha"/>
<feOffset/>
<feGaussianBlur stdDeviation="5"/>
<feColorMatrix type="matrix" values="0 0 0 0 1 0 0 0 0 1 0 0 0 0 1 0 0 0 1 0"/>
<feBlend mode="normal" in2="BackgroundImageFix" result="effect1_dropShadow"/>
<feBlend mode="normal" in="SourceGraphic" in2="effect1_dropShadow" result="shape"/>
</filter>
<filter id="filter14_d" x="699.062" y="757.209" width="65.7168" height="66.4531" filterUnits="userSpaceOnUse" color-interpolation-filters="sRGB">
<feFlood flood-opacity="0" result="BackgroundImageFix"/>
<feColorMatrix in="SourceAlpha" type="matrix" values="0 0 0 0 0 0 0 0 0 0 0 0 0 0 0 0 0 0 127 0" result="hardAlpha"/>
<feOffset/>
<feGaussianBlur stdDeviation="4"/>
<feColorMatrix type="matrix" values="0 0 0 0 0.995337 0 0 0 0 0.991667 0 0 0 0 1 0 0 0 1 0"/>
<feBlend mode="normal" in2="BackgroundImageFix" result="effect1_dropShadow"/>
<feBlend mode="normal" in="SourceGraphic" in2="effect1_dropShadow" result="shape"/>
</filter>
<filter id="filter15_d" x="726.302" y="933.957" width="51.4521" height="52.0791" filterUnits="userSpaceOnUse" color-interpolation-filters="sRGB">
<feFlood flood-opacity="0" result="BackgroundImageFix"/>
<feColorMatrix in="SourceAlpha" type="matrix" values="0 0 0 0 0 0 0 0 0 0 0 0 0 0 0 0 0 0 127 0" result="hardAlpha"/>
<feOffset/>
<feGaussianBlur stdDeviation="4"/>
<feColorMatrix type="matrix" values="0 0 0 0 1 0 0 0 0 1 0 0 0 0 1 0 0 0 1 0"/>
<feBlend mode="normal" in2="BackgroundImageFix" result="effect1_dropShadow"/>
<feBlend mode="normal" in="SourceGraphic" in2="effect1_dropShadow" result="shape"/>
</filter>
<filter id="filter16_d" x="531.123" y="1003.25" width="48.6662" height="49.1269" filterUnits="userSpaceOnUse" color-interpolation-filters="sRGB">
<feFlood flood-opacity="0" result="BackgroundImageFix"/>
<feColorMatrix in="SourceAlpha" type="matrix" values="0 0 0 0 0 0 0 0 0 0 0 0 0 0 0 0 0 0 127 0" result="hardAlpha"/>
<feOffset/>
<feGaussianBlur stdDeviation="4"/>
<feColorMatrix type="matrix" values="0 0 0 0 1 0 0 0 0 1 0 0 0 0 1 0 0 0 1 0"/>
<feBlend mode="normal" in2="BackgroundImageFix" result="effect1_dropShadow"/>
<feBlend mode="normal" in="SourceGraphic" in2="effect1_dropShadow" result="shape"/>
</filter>
<filter id="filter17_d" x="173.317" y="963.962" width="131.558" height="85.2864" filterUnits="userSpaceOnUse" color-interpolation-filters="sRGB">
<feFlood flood-opacity="0" result="BackgroundImageFix"/>
<feColorMatrix in="SourceAlpha" type="matrix" values="0 0 0 0 0 0 0 0 0 0 0 0 0 0 0 0 0 0 127 0" result="hardAlpha"/>
<feOffset/>
<feGaussianBlur stdDeviation="7.5"/>
<feColorMatrix type="matrix" values="0 0 0 0 1 0 0 0 0 1 0 0 0 0 1 0 0 0 0.75 0"/>
<feBlend mode="normal" in2="BackgroundImageFix" result="effect1_dropShadow"/>
<feBlend mode="normal" in="SourceGraphic" in2="effect1_dropShadow" result="shape"/>
</filter>
<filter id="filter18_d" x="628.812" y="113.619" width="137.608" height="127.063" filterUnits="userSpaceOnUse" color-interpolation-filters="sRGB">
<feFlood flood-opacity="0" result="BackgroundImageFix"/>
<feColorMatrix in="SourceAlpha" type="matrix" values="0 0 0 0 0 0 0 0 0 0 0 0 0 0 0 0 0 0 127 0" result="hardAlpha"/>
<feOffset/>
<feGaussianBlur stdDeviation="4"/>
<feColorMatrix type="matrix" values="0 0 0 0 1 0 0 0 0 1 0 0 0 0 1 0 0 0 1 0"/>
<feBlend mode="normal" in2="BackgroundImageFix" result="effect1_dropShadow"/>
<feBlend mode="normal" in="SourceGraphic" in2="effect1_dropShadow" result="shape"/>
</filter>
<radialGradient id="paint0_radial" cx="0" cy="0" r="1" gradientUnits="userSpaceOnUse" gradientTransform="translate(486.745 644.688) rotate(-121.532) scale(588.134 698.01)">
<stop offset="0.483764" stop-color="#95ECFF" stop-opacity="0.6"/>
<stop offset="0.670117" stop-color="white" stop-opacity="0.72"/>
<stop offset="0.886566" stop-color="#95ECFF" stop-opacity="0.3"/>
</radialGradient>
<radialGradient id="paint1_radial" cx="0" cy="0" r="1" gradientUnits="userSpaceOnUse" gradientTransform="translate(125.827 635.061) rotate(-90.1932) scale(501.3 4.49954)">
<stop offset="0.483764" stop-color="#95ECFF" stop-opacity="0.6"/>
<stop offset="0.670117" stop-color="white" stop-opacity="0.72"/>
<stop offset="0.886566" stop-color="#95ECFF" stop-opacity="0.3"/>
</radialGradient>
<radialGradient id="paint2_radial" cx="0" cy="0" r="1" gradientUnits="userSpaceOnUse" gradientTransform="translate(804.31 601.366) rotate(-90.1932) scale(501.3 4.49961)">
<stop offset="0.483764" stop-color="#95ECFF" stop-opacity="0.6"/>
<stop offset="0.670117" stop-color="white" stop-opacity="0.72"/>
<stop offset="0.886566" stop-color="#95ECFF" stop-opacity="0.3"/>
</radialGradient>
<linearGradient id="paint3_linear" x1="682.018" y1="228.833" x2="681.521" y2="816.138" gradientUnits="userSpaceOnUse">
<stop stop-color="#95ECFF"/>
<stop offset="1" stop-color="#95ECFF" stop-opacity="0.57"/>
</linearGradient>
<linearGradient id="paint4_linear" x1="157.606" y1="142.715" x2="494.392" y2="336.242" gradientUnits="userSpaceOnUse">
<stop stop-color="#AE5CEF"/>
<stop offset="1" stop-color="#8543BA"/>
</linearGradient>
<linearGradient id="paint5_linear" x1="624.001" y1="130.487" x2="742.876" y2="294.344" gradientUnits="userSpaceOnUse">
<stop stop-color="#7F3AB5"/>
<stop offset="1" stop-color="#5E1DB0"/>
</linearGradient>
<linearGradient id="paint6_linear" x1="558.111" y1="805.266" x2="861.338" y2="1029" gradientUnits="userSpaceOnUse">
<stop stop-color="#7F3AB5"/>
<stop offset="1" stop-color="#5E1DB0"/>
</linearGradient>
<linearGradient id="paint7_linear" x1="70.9015" y1="891.911" x2="487.155" y2="1007.36" gradientUnits="userSpaceOnUse">
<stop stop-color="#AE5CEF"/>
<stop offset="1" stop-color="#8543BA"/>
</linearGradient>
<linearGradient id="paint8_linear" x1="183.982" y1="716.214" x2="478.753" y2="858.135" gradientUnits="userSpaceOnUse">
<stop stop-color="#C96FF3"/>
<stop offset="1" stop-color="#A54BFF"/>
</linearGradient>
<linearGradient id="paint9_linear" x1="76.9168" y1="878.674" x2="150.338" y2="1009.82" gradientUnits="userSpaceOnUse">
<stop offset="0.279201" stop-color="#8B42C7"/>
<stop offset="0.827315" stop-color="#782DB3"/>
</linearGradient>
<linearGradient id="paint10_linear" x1="287.529" y1="760.345" x2="279.072" y2="762.768" gradientUnits="userSpaceOnUse">
<stop stop-color="#674C83"/>
<stop offset="1" stop-color="#785998" stop-opacity="0"/>
</linearGradient>
<linearGradient id="paint11_linear" x1="319.489" y1="53.3098" x2="568.672" y2="289.233" gradientUnits="userSpaceOnUse">
<stop stop-color="#C268EC"/>
<stop offset="1" stop-color="#A54BFF"/>
</linearGradient>
<linearGradient id="paint12_linear" x1="83.359" y1="104.755" x2="30.8096" y2="45.5195" gradientUnits="userSpaceOnUse">
<stop stop-color="#5C80B4"/>
<stop offset="1" stop-color="#95ECFF"/>
</linearGradient>
<linearGradient id="paint13_linear" x1="666.835" y1="867.225" x2="604.305" y2="939.018" gradientUnits="userSpaceOnUse">
<stop stop-color="#FFF6ED"/>
<stop offset="1" stop-color="#FFE1F0"/>
</linearGradient>
<radialGradient id="paint14_radial" cx="0" cy="0" r="1" gradientUnits="userSpaceOnUse" gradientTransform="translate(15.9278 3.44841) rotate(73.8931) scale(51.8764 59.0782)">
<stop offset="0.411177" stop-color="#FFA9BE"/>
<stop offset="1" stop-color="#CA5773"/>
</radialGradient>
<linearGradient id="paint15_linear" x1="702.696" y1="151.879" x2="692.744" y2="202.522" gradientUnits="userSpaceOnUse">
<stop stop-color="#B9F2FF"/>
<stop offset="1" stop-color="#A2EEFF"/>
</linearGradient>
</defs>
</svg>
