<svg width="20" height="18" viewBox="0 0 20 18" fill="none" xmlns="http://www.w3.org/2000/svg">
<path d="M18.385 17V18C18.9373 18 19.385 17.5523 19.385 17H18.385ZM1.55469 17H0.554688C0.554688 17.5523 1.0024 18 1.55469 18L1.55469 17ZM1.55469 1V0C1.0024 0 0.554688 0.447715 0.554688 1L1.55469 1ZM5.96263 2C6.51492 2 6.96263 1.55228 6.96263 1C6.96263 0.447715 6.51492 0 5.96263 0V2ZM19.385 12.4286C19.385 11.8763 18.9373 11.4286 18.385 11.4286C17.8327 11.4286 17.385 11.8763 17.385 12.4286H19.385ZM9.96986 0C9.41757 0 8.96986 0.447715 8.96986 1C8.96986 1.55228 9.41757 2 9.96986 2V0ZM18.385 1H19.385C19.385 0.447715 18.9373 0 18.385 0V1ZM17.385 8.7037C17.385 9.25599 17.8327 9.7037 18.385 9.7037C18.9373 9.7037 19.385 9.25599 19.385 8.7037H17.385ZM6.0629 11.7156C5.66913 12.1028 5.66384 12.736 6.05109 13.1298C6.43835 13.5235 7.07149 13.5288 7.46526 13.1416L6.0629 11.7156ZM18.385 16H1.55469V18H18.385V16ZM2.55469 17V1H0.554688V17H2.55469ZM1.55469 2H5.96263V0H1.55469V2ZM17.385 12.4286V17H19.385V12.4286H17.385ZM9.96986 2H18.385V0H9.96986V2ZM17.385 1V8.7037H19.385V1H17.385ZM17.6838 0.287016L6.0629 11.7156L7.46526 13.1416L19.0862 1.71298L17.6838 0.287016Z" fill="white"/>
</svg>
